<svg xmlns="http://www.w3.org/2000/svg" viewBox="0 0 471.33 124.5"><defs><style>.cls-1{fill:#fafafa;}.cls-2{fill:#fffcca;}.cls-3,.cls-4{fill:#ccc;}.cls-4,.cls-5,.cls-6,.cls-7{isolation:isolate;}.cls-4{font-size:9.92px;}.cls-4,.cls-6,.cls-7{font-family:MicrosoftYaHei, Microsoft YaHei;}.cls-6{font-size:9px;}.cls-7{font-size:18px;}</style></defs><title>11资源 1bg9004</title><g id="图层_2" data-name="图层 2"><g id="图层_1-2" data-name="图层 1"><rect class="cls-1" x="66.89" y="0.5" width="165.56" height="123"/><rect class="cls-2" width="66.89" height="124"/><path class="cls-3" d="M79.47,114.75a8.47,8.47,0,0,0,2.86-.91,6.28,6.28,0,0,1-1.5-1.5l.51.16h-.45v-6h3v1l-4-1h5v1h3v5H84.5c-.11.1-.39.71-.8,1.22a16,16,0,0,0,5.41.7q-.24.43-.39.78a15.19,15.19,0,0,1-5.66-1,9.12,9.12,0,0,1-3.17,1.24A4.89,4.89,0,0,0,79.47,114.75Zm1.42-5.25h3v-1h-3Zm2.64,1H80.89v1h2.57C83.46,111.23,83.51,110.88,83.53,110.5Zm-.57,3c.4-.49.67-1,.77-1H81.38a5.13,5.13,0,0,1,1.6,1Zm1.33-2h2.6v-1H84.4a8.44,8.44,0,0,1-.09,1Zm3.06-3H84.89v1h2.49Z"/><path class="cls-3" d="M89.89,109.5h1a5.15,5.15,0,0,0-.77-1.42l.52-.37c.22.26.49.62.83,1.09l-.58.7h1.28a10.57,10.57,0,0,1,1-1.8l.69.39a6.5,6.5,0,0,0-.9,1.41h1.93v1h-5Zm.47,3,.66.31c-.35.73-.69,1.39-1,2a5.71,5.71,0,0,0-.64-.35,14.93,14.93,0,0,0,1-2Zm-.47-1h2v-1h2v1h-2v2.66c.43.69.1,1-.57,1.34h-.94a4.89,4.89,0,0,0-.11-1.08c.38,0,.67.06.89.06a17.84,17.84,0,0,0,1.73-.49V110.5h-3Zm-.27-5h2.1c-.14.19-.3-.1-.48-.41l.62-.29c.2.33.39.66.56,1l-.32-.3h1.79v1H89.67Zm3.5,5.62c.36.49.68.94.95,1.35l-.62.43a13.86,13.86,0,0,0-.9-1.4Zm1.77-5.46a17.72,17.72,0,0,0,3.56-.39l.25.74c-1.28.17-3.81.33-3.81.33v2.16h4v1h-1v5h-1v-5h-1v.23a10.5,10.5,0,0,1-1.83,4.63c-.15-.2-.32-.4-.51-.62.9-1.13,1.34-4,1.34-4Z"/><path class="cls-3" d="M104.27,111.61a2.1,2.1,0,0,1-.75,1.67,3,3,0,0,1-2,.63,3.26,3.26,0,0,1-1.6-.29v-.77a2.91,2.91,0,0,0,1.57.49,1.88,1.88,0,0,0,1.29-.43,1.44,1.44,0,0,0,.49-1.15,1.36,1.36,0,0,0-.51-1.12,2.3,2.3,0,0,0-1.44-.4q-.64,0-1.29.06l.29-3.8h3.57v1h-2.74l-.16,2h.69a3,3,0,0,1,1.91.55A2,2,0,0,1,104.27,111.61Z"/><path class="cls-3" d="M105.89,108.5h3.79a3.31,3.31,0,0,1-.41-.5l.64-.3a12.63,12.63,0,0,1,.59,1.8h3.39v1h-7.3a10.39,10.39,0,0,1-.23,2,8.16,8.16,0,0,1-1.11,2.59c-.15-.21-.32-.44-.53-.69a6.73,6.73,0,0,0,.94-2.1,10.35,10.35,0,0,0,.23-2.42Zm1.14-2h.86s-.3-.12-.46,0h2.46v1H107c-.39.3-.85.8-1.36,1.25a6.63,6.63,0,0,0-.52-.54C105.89,107.56,107,106.5,107,106.5Zm5.86,3h-6v1h6Zm-5,6h-1v-4h7v2.8s-.1.94-.6,1c-.07,0-.14,0-.21.2h-.81c0-.34-.08-.67-.14-1h1.37c.26,0,.39-.15.39-.44v-.56h-2v2h-1v-2h-1v2h-1v-2h-1Zm.18-6.89a10.53,10.53,0,0,0-.76-1l.52-.36c.24.24.51.54.81.89Zm-.18,3.89h1v-1h-1Zm1.67,0h1.33v-1h-1.3Zm1.67-6H112s-.25-.13-.4,0h3.28v1h-3.64c-.18,0-.38.28-.59.53a4.92,4.92,0,0,0-.58-.44C110.57,107.07,111.23,106.5,111.23,106.5Zm1.1,2.12a10.63,10.63,0,0,0-.77-1l.5-.35c.34.35.62.66.83.91Zm.56,2.88h-1v1h1Z"/><text class="cls-4" transform="translate(202.31 114.1)">前往</text><g class="cls-5"><text class="cls-6" transform="translate(79.22 59.17)">滚滚长江东逝水滚滚长江</text><text class="cls-6" transform="translate(79.22 69.97)">东逝水滚滚长江东逝水</text></g><text class="cls-7" transform="translate(78.56 30.17)">滚滚长江东逝水</text><rect class="cls-1" x="305.78" y="1" width="165.56" height="123"/><rect class="cls-2" x="238.89" y="0.5" width="66.89" height="124"/><path class="cls-3" d="M318.36,115.25a8.47,8.47,0,0,0,2.86-.91,6.28,6.28,0,0,1-1.5-1.5l.51.16h-.45v-6h3v1l-4-1h5v1h3v5h-3.39c-.11.1-.39.71-.8,1.22a16,16,0,0,0,5.41.7q-.24.43-.39.78a15.15,15.15,0,0,1-5.66-1,9.12,9.12,0,0,1-3.17,1.24A4.89,4.89,0,0,0,318.36,115.25Zm1.42-5.25h3v-1h-3Zm2.64,1h-2.64v1h2.57C322.35,111.73,322.4,111.38,322.42,111Zm-.57,3c.4-.49.67-1,.77-1h-2.35a5.13,5.13,0,0,1,1.6,1Zm1.33-2h2.6v-1h-2.49a8.44,8.44,0,0,1-.09,1Zm3.06-3h-2.46v1h2.49Z"/><path class="cls-3" d="M328.78,110h1a5.15,5.15,0,0,0-.77-1.42l.52-.37c.22.26.49.62.83,1.09l-.58.7h1.28a10.57,10.57,0,0,1,1-1.8l.69.39a6.14,6.14,0,0,0-.9,1.41h1.93v1h-5Zm.47,3,.66.31c-.35.73-.69,1.39-1,2a5.71,5.71,0,0,0-.64-.35,14.93,14.93,0,0,0,1-2Zm-.47-1h2v-1h2v1h-2v2.66c.43.69.1,1-.57,1.34h-.94a5.57,5.57,0,0,0-.11-1.08c.38,0,.67.06.89.06a17.84,17.84,0,0,0,1.73-.49V111h-3Zm-.27-5h2.1c-.14.19-.3-.1-.48-.41l.62-.29c.2.33.39.66.56,1L331,107h1.79v1h-4.22Zm3.5,5.62c.36.49.68.94.95,1.35l-.62.43a13.86,13.86,0,0,0-.9-1.4Zm1.77-5.46a17.8,17.8,0,0,0,3.56-.39l.25.74c-1.28.17-3.81.33-3.81.33V110h4v1h-1v5h-1v-5h-1v.23a10.5,10.5,0,0,1-1.83,4.63c-.15-.2-.32-.4-.51-.62.9-1.13,1.34-4,1.34-4Z"/><path class="cls-3" d="M343.16,112.11a2.13,2.13,0,0,1-.75,1.67,3,3,0,0,1-2,.63,3.26,3.26,0,0,1-1.6-.29v-.77a2.91,2.91,0,0,0,1.57.49,1.88,1.88,0,0,0,1.29-.43,1.44,1.44,0,0,0,.49-1.15,1.36,1.36,0,0,0-.51-1.12,2.3,2.3,0,0,0-1.44-.4q-.66,0-1.29.06l.29-3.8h3.57v1H340l-.16,2h.69a3,3,0,0,1,1.91.55A2,2,0,0,1,343.16,112.11Z"/><path class="cls-3" d="M344.78,109h3.79a3.31,3.31,0,0,1-.41-.5l.64-.3a12.63,12.63,0,0,1,.59,1.8h3.39v1h-7.3a10.39,10.39,0,0,1-.23,2,8.16,8.16,0,0,1-1.11,2.59c-.15-.21-.32-.44-.53-.69a6.73,6.73,0,0,0,.94-2.1,10.35,10.35,0,0,0,.23-2.42Zm1.14-2h.86s-.3-.12-.46,0h2.46v1h-2.89c-.39.3-.85.8-1.36,1.25a6.63,6.63,0,0,0-.52-.54C344.78,108.06,345.92,107,345.92,107Zm5.86,3h-6v1h6Zm-5,6h-1v-4h7v2.8s-.1.94-.6,1c-.07,0-.14,0-.21.2h-.81c0-.34-.08-.67-.14-1h1.37c.26,0,.39-.15.39-.44V114h-2v2h-1v-2h-1v2h-1v-2h-1Zm.18-6.89a12.52,12.52,0,0,0-.76-1l.52-.36c.24.24.51.54.81.89Zm-.18,3.89h1v-1h-1Zm1.67,0h1.33v-1h-1.3Zm1.67-6h.78s-.25-.13-.4,0h3.28v1h-3.64c-.18,0-.38.28-.59.53a4.92,4.92,0,0,0-.58-.44C349.46,107.57,350.12,107,350.12,107Zm1.1,2.12c-.24-.35-.5-.68-.77-1l.5-.35c.34.35.62.66.83.91Zm.56,2.88h-1v1h1Z"/><text class="cls-4" transform="translate(441.2 114.6)">前往</text><g class="cls-5"><text class="cls-6" transform="translate(318.11 59.67)">滚滚长江东逝水滚滚长江</text><text class="cls-6" transform="translate(318.11 70.47)">东逝水滚滚长江东逝水</text></g><text class="cls-7" transform="translate(317.45 30.67)">滚滚长江东逝水</text></g></g></svg>