<svg xmlns="http://www.w3.org/2000/svg" viewBox="0 0 337 153"><defs><style>.cls-1{fill:#fafafa;}.cls-2{fill:#fffcca;}.cls-3,.cls-4{fill:#ccc;}.cls-4,.cls-5{isolation:isolate;}.cls-4{font-size:9.92px;font-family:MicrosoftYaHei, Microsoft YaHei;}</style></defs><title>11资源 2bg9004</title><g id="图层_2" data-name="图层 2"><g id="图层_1-2" data-name="图层 1"><rect class="cls-1" y="66" width="166" height="87"/><rect class="cls-2" width="166" height="65"/><path class="cls-3" d="M12.58,147.25a8.47,8.47,0,0,0,2.86-.91,6.28,6.28,0,0,1-1.5-1.5l.51.16H14v-6h3v1l-4-1h5v1h3v5H17.61c-.11.1-.39.71-.8,1.22a16,16,0,0,0,5.41.7q-.24.44-.39.78a15.22,15.22,0,0,1-5.66-1A9.12,9.12,0,0,1,13,147.94,4.89,4.89,0,0,0,12.58,147.25ZM14,142h3v-1H14Zm2.64,1H14v1h2.57C16.57,143.73,16.62,143.38,16.64,143Zm-1.06,3c.4-.49.67-1,.77-1H14a5,5,0,0,1,1.6,1Zm1.82-2H20v-1H17.51a8.44,8.44,0,0,1-.09,1Zm3.06-3H18v1h2.49Z"/><path class="cls-3" d="M23,142h1a5.15,5.15,0,0,0-.77-1.42l.52-.37c.22.26.49.62.83,1.09L24,142h1.28a10.57,10.57,0,0,1,1-1.8l.69.39a6.5,6.5,0,0,0-.9,1.41H28v1H23Zm0,3,.66.31c-.35.73-.69,1.39-1,2A4.94,4.94,0,0,0,22,147a14.93,14.93,0,0,0,1-2Zm0-1h2v-1h2v1H25v2.66c.43.69.1,1-.57,1.34h-.94a4.89,4.89,0,0,0-.11-1.08c.38,0,.67.06.89.06a17.84,17.84,0,0,0,1.73-.49V143H23Zm-.27-5h2.1c-.14.19-.3-.1-.48-.41l.62-.29c.2.33.39.66.56,1l-.32-.3H27v1H22.78Zm3,5.62c.36.49.68.94,1,1.35l-.62.43a13.86,13.86,0,0,0-.9-1.4ZM28,139.16a17.72,17.72,0,0,0,3.56-.39l.25.74c-1.28.17-3.81.33-3.81.33V142h4v1H31v5H30v-5H29v.23a10.5,10.5,0,0,1-1.83,4.63c-.15-.2-.32-.4-.51-.62.9-1.13,1.34-4,1.34-4Z"/><path class="cls-3" d="M37.38,144.11a2.1,2.1,0,0,1-.75,1.67,3,3,0,0,1-2,.63,3.3,3.3,0,0,1-1.61-.29v-.77a3,3,0,0,0,1.58.49,1.91,1.91,0,0,0,1.3-.43,1.45,1.45,0,0,0,.5-1.15,1.34,1.34,0,0,0-.52-1.12,2.31,2.31,0,0,0-1.45-.4c-.44,0-.87,0-1.3.06l.29-3.8H37v1H34.24l-.16,2h.69a3,3,0,0,1,1.93.55A2,2,0,0,1,37.38,144.11Z"/><path class="cls-3" d="M39,141h3.79a3.31,3.31,0,0,1-.41-.5l.64-.3a12.63,12.63,0,0,1,.59,1.8H47v1H39.7a10.39,10.39,0,0,1-.23,2,8.16,8.16,0,0,1-1.11,2.59c-.15-.21-.32-.44-.53-.69a6.73,6.73,0,0,0,.94-2.1,10.35,10.35,0,0,0,.23-2.42Zm1.14-2H41s-.3-.12-.46,0H43v1H40.11c-.39.3-.85.8-1.36,1.25a5.29,5.29,0,0,0-.52-.54C39,140.06,40.14,139,40.14,139ZM46,142H40v1h6Zm-5,6H40v-4h7v2.8s-.1.94-.6,1c-.07,0-.14,0-.21.2h-.81c0-.34-.08-.67-.14-1h1.37c.26,0,.39-.15.39-.44V146H45v2H44v-2H43v2H42v-2H41Zm-.31-6.89a10.53,10.53,0,0,0-.76-1l.52-.36c.24.24.51.54.81.89ZM41,145h1v-1H41Zm1.67,0H44v-1H42.7Zm1.67-6h.78s-.25-.13-.4,0H48v1H44.36c-.18,0-.38.28-.59.53a4.92,4.92,0,0,0-.58-.44C43.68,139.57,44.34,139,44.34,139Zm.61,2.12a10.63,10.63,0,0,0-.77-1l.5-.35c.34.35.62.66.83.91ZM46,144H45v1h1Z"/><text class="cls-4" transform="translate(134.93 146.6)">前往</text><g class="cls-5"><path d="M12.64,108.13c.39.26.87.64,1.45,1.12l-.48.57c-.48-.45-.95-.85-1.4-1.2Zm.62,2.54c.22.09.44.18.68.26-.25,1-.51,2.13-.8,3.37l-.72-.24A29.94,29.94,0,0,0,13.26,110.67Zm-.16-4.76c.5.4,1,.8,1.43,1.22l-.5.52c-.56-.56-1-1-1.35-1.27Zm7.1,5.15.45.5c-.42.34-.87.67-1.33,1a5.17,5.17,0,0,0,1.66.83l-.48.64a5.4,5.4,0,0,1-3-2.82,10.8,10.8,0,0,1-.89.78v1.51L18,113v.69c-.38.12-.8.27-1.25.44-.22.09-.43.19-.63.29l-.39-.53a.73.73,0,0,0,.22-.62v-.83a10,10,0,0,1-1.59.83,6.92,6.92,0,0,0-.46-.6,9,9,0,0,0,3.2-1.87l-1,.06a5.28,5.28,0,0,0-.78.13l-.3-.63a1.87,1.87,0,0,0,.68-.32,10,10,0,0,0,1.55-1.57l.62.32a19.17,19.17,0,0,1-1.55,1.46c.89,0,1.76,0,2.62-.06l-.82-.71.41-.38c.84.66,1.45,1.16,1.82,1.52l-.48.44-.37-.35-1.56.05a4.78,4.78,0,0,0,.94,1.4A14.22,14.22,0,0,0,20.2,111.06Zm-3.65-3.58.53.4a16,16,0,0,1-2.13,1.6,5.37,5.37,0,0,0-.44-.51A9.58,9.58,0,0,0,16.55,107.48ZM15,106.71h2.55q-.18-.39-.39-.78l.64-.25c.18.35.35.7.5,1H20.8v.6H15Zm3.76.79c.8.53,1.49,1,2.06,1.47l-.42.5c-.52-.43-1.19-.94-2-1.54Z"/><path d="M21.64,108.13c.39.26.87.64,1.45,1.12l-.48.57c-.48-.45-.95-.85-1.4-1.2Zm.62,2.54c.22.09.44.18.68.26-.25,1-.51,2.13-.8,3.37l-.72-.24A29.94,29.94,0,0,0,22.26,110.67Zm-.16-4.76c.5.4,1,.8,1.43,1.22l-.5.52c-.56-.56-1-1-1.35-1.27Zm7.1,5.15.45.5c-.42.34-.87.67-1.33,1a5.17,5.17,0,0,0,1.66.83l-.48.64a5.4,5.4,0,0,1-3-2.82,10.8,10.8,0,0,1-.89.78v1.51L27,113v.69c-.38.12-.8.27-1.25.44-.22.09-.43.19-.63.29l-.39-.53a.73.73,0,0,0,.22-.62v-.83a10,10,0,0,1-1.59.83,6.92,6.92,0,0,0-.46-.6,9,9,0,0,0,3.2-1.87l-1,.06a5.28,5.28,0,0,0-.78.13l-.3-.63a1.87,1.87,0,0,0,.68-.32,10,10,0,0,0,1.55-1.57l.62.32a19.17,19.17,0,0,1-1.55,1.46c.89,0,1.76,0,2.62-.06l-.82-.71.41-.38c.84.66,1.45,1.16,1.82,1.52l-.48.44-.37-.35-1.56.05a4.78,4.78,0,0,0,.94,1.4A14.22,14.22,0,0,0,29.2,111.06Zm-3.65-3.58.53.4a16,16,0,0,1-2.13,1.6,5.37,5.37,0,0,0-.44-.51A9.58,9.58,0,0,0,25.55,107.48ZM24,106.71h2.55q-.18-.39-.39-.78l.64-.25c.18.35.35.7.5,1H29.8v.6H24Zm3.76.79c.8.53,1.49,1,2.06,1.47l-.42.5c-.52-.43-1.19-.94-2-1.54Z"/><path d="M30.33,109.33h1.54v-3.58h.72v3.58H38.8V110H35a6.14,6.14,0,0,0,4,3.31l-.53.72a6.89,6.89,0,0,1-4.25-4H32.59v3.18q1-.4,2.13-.93a6.74,6.74,0,0,0,0,.79q-1,.43-2,.9a4.94,4.94,0,0,0-.65.44l-.52-.68a.79.79,0,0,0,.29-.64V110H30.33Zm2.79-1.07A15.14,15.14,0,0,0,37.31,106l.46.57a16.8,16.8,0,0,1-4.31,2.3A6.94,6.94,0,0,0,33.12,108.26Z"/><path d="M39.64,108.14c.6.36,1.19.76,1.77,1.18l-.49.65a20.55,20.55,0,0,0-1.7-1.26Zm1.09,2.55c.24.15.48.29.72.41-.42,1.05-.83,2.14-1.24,3.27l-.74-.42A26.44,26.44,0,0,0,40.73,110.69Zm-.64-4.79c.55.36,1.11.78,1.7,1.25l-.48.6c-.55-.49-1.1-.94-1.65-1.34Zm1.5,7.19h2.82v-5.81H42.12v-.65h5.46v.65H45.15v5.81H48v.65H41.59Z"/><path d="M50.37,111.1l.59.45c-.67.78-1.43,1.59-2.29,2.42-.15-.16-.32-.33-.5-.49A24.9,24.9,0,0,0,50.37,111.1Zm-1.29-.53v-.67l1-2.33H48.36v-.67h2l.51-1.21.76.16-.46,1.05h5.63v.67H50.9l-1,2.33h2.65V108h.74v1.92H56.4v.67H53.27v2.6c0,.73-.38,1.09-1.15,1.09H50.81c0-.22-.08-.49-.14-.79a9.85,9.85,0,0,0,1.25.08c.41,0,.61-.2.61-.62v-2.35Zm5,1.12.49-.49c.81.67,1.62,1.37,2.43,2.11l-.55.55C55.69,113.07,54.9,112.34,54.12,111.69Z"/><path d="M61,113.51l2.45,0,2.57-.07c-.1.23-.2.46-.29.69H62.78l-2,0a2.42,2.42,0,0,1-2.18-1,11.08,11.08,0,0,0-1.06,1.23l-.38-.75c.39-.39.78-.76,1.15-1.11v-2.95h-1v-.65H59v3.74A2.19,2.19,0,0,0,61,113.51Zm-2.8-7.6q.56.7,1.05,1.47l-.59.41q-.49-.83-1-1.53Zm1.16,4,1.16-.34v-1.52h-1v-.62h1V105.8h.66v1.67h1v.62h-1v1.32l.93-.31c0,.28,0,.51,0,.7l-.93.29v1.57c0,.69-.3,1-.89,1-.18,0-.43,0-.76,0a5.52,5.52,0,0,0-.11-.71,4.44,4.44,0,0,0,.71.06q.39,0,.39-.48V110.3l-1,.35Zm6.21-3.89.16.64c-.84.1-1.68.19-2.54.27v1.56h2.73v.63h-1v3.93h-.66v-3.93h-1a5.89,5.89,0,0,1-1.27,3.93,4.81,4.81,0,0,0-.55-.52A5.17,5.17,0,0,0,62.49,109v-2.56C63.47,106.33,64.48,106.22,65.53,106.06Z"/><path d="M66.45,108.59v-.67h3v.64a11,11,0,0,1-2.72,4.94,4.55,4.55,0,0,0-.54-.54,9.79,9.79,0,0,0,2.56-4.37Zm3.75-2.82h.72v1.41a13.43,13.43,0,0,0,.86,1.91,16,16,0,0,0,1.94-1.93l.59.53a24.14,24.14,0,0,1-2.17,2,10,10,0,0,0,2.84,3,7.82,7.82,0,0,0-.6.66,11.23,11.23,0,0,1-3.46-4.5v4.1c0,.88-.42,1.31-1.26,1.31H68.52c0-.22-.08-.49-.14-.8a10.73,10.73,0,0,0,1.14.07c.45,0,.68-.21.68-.65Z"/><path d="M75.64,108.13c.39.26.87.64,1.45,1.12l-.48.57c-.48-.45-1-.85-1.4-1.2Zm.62,2.54c.22.09.44.18.68.26-.25,1-.51,2.13-.8,3.37l-.72-.24A29.94,29.94,0,0,0,76.26,110.67Zm-.16-4.76c.5.4,1,.8,1.43,1.22l-.5.52c-.56-.56-1-1-1.35-1.27Zm7.1,5.15.45.5c-.42.34-.87.67-1.33,1a5.17,5.17,0,0,0,1.66.83l-.48.64a5.4,5.4,0,0,1-3-2.82,10.8,10.8,0,0,1-.89.78v1.51L81,113v.69c-.38.12-.8.27-1.25.44-.22.09-.43.19-.63.29l-.39-.53a.73.73,0,0,0,.22-.62v-.83a10,10,0,0,1-1.59.83,6.92,6.92,0,0,0-.46-.6,9,9,0,0,0,3.2-1.87l-1,.06a5.28,5.28,0,0,0-.78.13l-.3-.63a1.87,1.87,0,0,0,.68-.32,10,10,0,0,0,1.55-1.57l.62.32a19.17,19.17,0,0,1-1.55,1.46c.89,0,1.76,0,2.62-.06l-.82-.71.41-.38c.84.66,1.45,1.16,1.82,1.52l-.48.44-.37-.35-1.56.05a4.78,4.78,0,0,0,.94,1.4A14.22,14.22,0,0,0,83.2,111.06Zm-3.65-3.58.53.4a16,16,0,0,1-2.13,1.6,5.37,5.37,0,0,0-.44-.51A9.58,9.58,0,0,0,79.55,107.48ZM78,106.71h2.55q-.18-.39-.39-.78l.64-.25c.18.35.35.7.5,1H83.8v.6H78Zm3.76.79c.8.53,1.49,1,2.06,1.47l-.42.5c-.52-.43-1.19-.94-2-1.54Z"/><path d="M84.64,108.13c.39.26.87.64,1.45,1.12l-.48.57c-.48-.45-1-.85-1.4-1.2Zm.62,2.54c.22.09.44.18.68.26-.25,1-.51,2.13-.8,3.37l-.72-.24A29.94,29.94,0,0,0,85.26,110.67Zm-.16-4.76c.5.4,1,.8,1.43,1.22l-.5.52c-.56-.56-1-1-1.35-1.27Zm7.1,5.15.45.5c-.42.34-.87.67-1.33,1a5.17,5.17,0,0,0,1.66.83l-.48.64a5.4,5.4,0,0,1-3-2.82,10.8,10.8,0,0,1-.89.78v1.51L90,113v.69c-.38.12-.8.27-1.25.44-.22.09-.43.19-.63.29l-.39-.53a.73.73,0,0,0,.22-.62v-.83a10,10,0,0,1-1.59.83,6.92,6.92,0,0,0-.46-.6,9,9,0,0,0,3.2-1.87l-1,.06a5.28,5.28,0,0,0-.78.13l-.3-.63a1.87,1.87,0,0,0,.68-.32,10,10,0,0,0,1.55-1.57l.62.32a19.17,19.17,0,0,1-1.55,1.46c.89,0,1.76,0,2.62-.06l-.82-.71.41-.38c.84.66,1.45,1.16,1.82,1.52l-.48.44-.37-.35-1.56.05a4.78,4.78,0,0,0,.94,1.4A14.22,14.22,0,0,0,92.2,111.06Zm-3.65-3.58.53.4a16,16,0,0,1-2.13,1.6,5.37,5.37,0,0,0-.44-.51A9.58,9.58,0,0,0,88.55,107.48ZM87,106.71h2.55q-.18-.39-.39-.78l.64-.25c.18.35.35.7.5,1H92.8v.6H87Zm3.76.79c.8.53,1.49,1,2.06,1.47l-.42.5c-.52-.43-1.19-.94-2-1.54Z"/><path d="M93.33,109.33h1.54v-3.58h.72v3.58h6.21V110H98a6.14,6.14,0,0,0,4,3.31l-.53.72a6.89,6.89,0,0,1-4.25-4H95.59v3.18q1-.4,2.13-.93a6.74,6.74,0,0,0,0,.79q-1,.43-2,.9a4.94,4.94,0,0,0-.65.44l-.52-.68a.79.79,0,0,0,.29-.64V110H93.33Zm2.79-1.07a15.14,15.14,0,0,0,4.19-2.22l.46.57a16.8,16.8,0,0,1-4.31,2.3A6.94,6.94,0,0,0,96.12,108.26Z"/><path d="M102.64,108.14c.6.36,1.19.76,1.77,1.18l-.49.65a20.55,20.55,0,0,0-1.7-1.26Zm1.09,2.55c.24.15.48.29.72.41-.42,1.05-.83,2.14-1.24,3.27l-.74-.42A26.44,26.44,0,0,0,103.73,110.69Zm-.64-4.79c.55.36,1.11.78,1.7,1.25l-.48.6c-.55-.49-1.1-.94-1.65-1.34Zm1.5,7.19h2.82v-5.81h-2.29v-.65h5.46v.65h-2.43v5.81H111v.65h-6.38Z"/></g><g class="cls-5"><path d="M14.37,121.9l.59.45c-.67.78-1.43,1.59-2.29,2.42-.15-.16-.32-.32-.5-.49A24.9,24.9,0,0,0,14.37,121.9Zm-1.29-.53v-.67l1-2.33H12.36v-.67h2l.51-1.2.76.15-.46,1h5.63v.67H14.9l-1,2.33h2.65v-1.92h.74v1.92H20.4v.67H17.27V124c0,.73-.38,1.09-1.15,1.09H14.81c0-.23-.08-.5-.14-.8a9.85,9.85,0,0,0,1.25.08c.41,0,.61-.2.61-.62v-2.35Zm5,1.12.49-.49c.81.67,1.62,1.37,2.43,2.11l-.55.55C19.69,123.87,18.9,123.15,18.12,122.49Z"/><path d="M25,124.31l2.45,0,2.57-.07c-.1.23-.2.46-.29.69l-2.91,0-2,0a2.42,2.42,0,0,1-2.18-1,11.08,11.08,0,0,0-1.06,1.23l-.38-.75c.39-.39.78-.76,1.15-1.11v-3H21.27v-.65H23v3.74A2.19,2.19,0,0,0,25,124.31Zm-2.8-7.6q.56.71,1.05,1.47l-.59.41c-.33-.55-.66-1.06-1-1.52Zm1.16,4,1.16-.34v-1.52h-1v-.62h1V116.6h.66v1.67h1v.62h-1v1.32l.93-.3q0,.41,0,.69l-.93.29v1.57c0,.69-.3,1-.89,1-.18,0-.43,0-.76,0a5.52,5.52,0,0,0-.11-.71,4.44,4.44,0,0,0,.71.06q.39,0,.39-.48V121.1l-1,.35Zm6.21-3.89.16.64c-.84.11-1.68.19-2.54.27v1.56h2.73V120h-1v3.94h-.66V120h-1a5.94,5.94,0,0,1-1.27,3.94,4.06,4.06,0,0,0-.55-.53,5.17,5.17,0,0,0,1.16-3.62v-2.56C27.47,117.13,28.48,117,29.53,116.86Z"/><path d="M30.45,119.39v-.67h3v.64a11,11,0,0,1-2.72,4.94,4.55,4.55,0,0,0-.54-.54,9.79,9.79,0,0,0,2.56-4.37Zm3.75-2.82h.72V118a14.1,14.1,0,0,0,.86,1.92A16.9,16.9,0,0,0,37.72,118l.59.53a24.14,24.14,0,0,1-2.17,2,10,10,0,0,0,2.84,3,7.82,7.82,0,0,0-.6.66,11.23,11.23,0,0,1-3.46-4.5v4.11c0,.87-.42,1.31-1.26,1.31H32.52c0-.22-.08-.48-.14-.8a11.13,11.13,0,0,0,1.14.08.59.59,0,0,0,.68-.66Z"/><path d="M39.64,118.93c.39.26.87.64,1.45,1.12l-.48.57c-.48-.45-1-.85-1.4-1.2Zm.62,2.54c.22.09.44.18.68.26-.25,1-.51,2.13-.8,3.37l-.72-.24A29.94,29.94,0,0,0,40.26,121.47Zm-.16-4.76c.5.4,1,.8,1.43,1.22l-.5.52c-.56-.56-1-1-1.35-1.27Zm7.1,5.15.45.5c-.42.34-.87.67-1.33,1a5.17,5.17,0,0,0,1.66.83l-.48.64a5.4,5.4,0,0,1-3-2.82,10.8,10.8,0,0,1-.89.78v1.51l1.4-.49v.69c-.38.12-.8.27-1.25.44-.22.09-.43.19-.63.29l-.39-.53a.72.72,0,0,0,.22-.62v-.83a10,10,0,0,1-1.59.83,6.92,6.92,0,0,0-.46-.6,9,9,0,0,0,3.2-1.86l-1,0a5.28,5.28,0,0,0-.78.13l-.3-.63a1.87,1.87,0,0,0,.68-.32,10,10,0,0,0,1.55-1.57l.62.32c-.58.6-1.1,1.09-1.55,1.47l2.62-.07-.82-.71.41-.37c.84.65,1.45,1.16,1.82,1.51l-.48.44-.37-.35-1.56.06a4.73,4.73,0,0,0,.94,1.39A14.22,14.22,0,0,0,47.2,121.86Zm-3.65-3.58.53.4a16,16,0,0,1-2.13,1.6,5.37,5.37,0,0,0-.44-.51A9.58,9.58,0,0,0,43.55,118.28ZM42,117.51h2.55q-.18-.39-.39-.78l.64-.25c.18.36.35.7.5,1H47.8v.6H42Zm3.76.8c.8.52,1.49,1,2.06,1.46l-.42.5c-.52-.43-1.19-.94-2-1.53Z"/><path d="M48.64,118.93c.39.26.87.64,1.45,1.12l-.48.57c-.48-.45-1-.85-1.4-1.2Zm.62,2.54c.22.09.44.18.68.26-.25,1-.51,2.13-.8,3.37l-.72-.24A29.94,29.94,0,0,0,49.26,121.47Zm-.16-4.76c.5.4,1,.8,1.43,1.22l-.5.52c-.56-.56-1-1-1.35-1.27Zm7.1,5.15.45.5c-.42.34-.87.67-1.33,1a5.17,5.17,0,0,0,1.66.83l-.48.64a5.4,5.4,0,0,1-3-2.82,10.8,10.8,0,0,1-.89.78v1.51l1.4-.49v.69c-.38.12-.8.27-1.25.44-.22.09-.43.19-.63.29l-.39-.53a.72.72,0,0,0,.22-.62v-.83a10,10,0,0,1-1.59.83,6.92,6.92,0,0,0-.46-.6,9,9,0,0,0,3.2-1.86l-1,0a5.28,5.28,0,0,0-.78.13l-.3-.63a1.87,1.87,0,0,0,.68-.32,10,10,0,0,0,1.55-1.57l.62.32c-.58.6-1.1,1.09-1.55,1.47l2.62-.07-.82-.71.41-.37c.84.65,1.45,1.16,1.82,1.51l-.48.44-.37-.35-1.56.06a4.73,4.73,0,0,0,.94,1.39A14.22,14.22,0,0,0,56.2,121.86Zm-3.65-3.58.53.4a16,16,0,0,1-2.13,1.6,5.37,5.37,0,0,0-.44-.51A9.58,9.58,0,0,0,52.55,118.28ZM51,117.51h2.55q-.18-.39-.39-.78l.64-.25c.18.36.35.7.5,1H56.8v.6H51Zm3.76.8c.8.52,1.49,1,2.06,1.46l-.42.5c-.52-.43-1.19-.94-2-1.53Z"/><path d="M57.33,120.13h1.54v-3.58h.72v3.58H65.8v.69H62a6.14,6.14,0,0,0,4,3.31c-.19.27-.37.51-.53.72a6.89,6.89,0,0,1-4.25-4H59.59V124q1-.41,2.13-.93a6.74,6.74,0,0,0,0,.79q-1,.44-2,.9a4.94,4.94,0,0,0-.65.44l-.52-.68a.79.79,0,0,0,.29-.64v-3.06H57.33Zm2.79-1.07a14.88,14.88,0,0,0,4.19-2.22l.46.57a16.8,16.8,0,0,1-4.31,2.3A6.94,6.94,0,0,0,60.12,119.06Z"/><path d="M66.64,118.94c.6.36,1.19.76,1.77,1.18l-.49.65a20.55,20.55,0,0,0-1.7-1.26Zm1.09,2.55c.24.15.48.29.72.41-.42,1-.83,2.14-1.24,3.27l-.74-.42A25.83,25.83,0,0,0,67.73,121.49Zm-.64-4.79c.55.37,1.11.79,1.7,1.25l-.48.6c-.55-.49-1.1-.94-1.65-1.34Zm1.5,7.19h2.82v-5.81H69.12v-.65h5.46v.65H72.15v5.81H75v.65H68.59Z"/><path d="M77.37,121.9l.59.45c-.67.78-1.43,1.59-2.29,2.42-.15-.16-.32-.32-.5-.49A24.9,24.9,0,0,0,77.37,121.9Zm-1.29-.53v-.67l1-2.33H75.36v-.67h2l.51-1.2.76.15-.46,1h5.63v.67H77.9l-1,2.33h2.65v-1.92h.74v1.92H83.4v.67H80.27V124c0,.73-.38,1.09-1.15,1.09H77.81c0-.23-.08-.5-.14-.8a9.85,9.85,0,0,0,1.25.08c.41,0,.61-.2.61-.62v-2.35Zm5,1.12.49-.49c.81.67,1.62,1.37,2.43,2.11l-.55.55C82.69,123.87,81.9,123.15,81.12,122.49Z"/><path d="M88,124.31l2.45,0,2.57-.07c-.1.23-.2.46-.29.69l-2.91,0-2,0a2.42,2.42,0,0,1-2.18-1,11.08,11.08,0,0,0-1.06,1.23l-.38-.75c.39-.39.78-.76,1.15-1.11v-3h-1v-.65H86v3.74A2.19,2.19,0,0,0,88,124.31Zm-2.8-7.6q.56.71,1,1.47l-.59.41c-.33-.55-.66-1.06-1-1.52Zm1.16,4,1.16-.34v-1.52h-1v-.62h1V116.6h.66v1.67h1v.62h-1v1.32l.93-.3q0,.41,0,.69l-.93.29v1.57c0,.69-.3,1-.89,1-.18,0-.43,0-.76,0a5.52,5.52,0,0,0-.11-.71,4.44,4.44,0,0,0,.71.06q.39,0,.39-.48V121.1l-1,.35Zm6.21-3.89.16.64c-.84.11-1.68.19-2.54.27v1.56h2.73V120h-1v3.94h-.66V120h-1a5.94,5.94,0,0,1-1.27,3.94,4.06,4.06,0,0,0-.55-.53,5.17,5.17,0,0,0,1.16-3.62v-2.56C90.47,117.13,91.48,117,92.53,116.86Z"/><path d="M93.45,119.39v-.67h3v.64a11,11,0,0,1-2.72,4.94,4.55,4.55,0,0,0-.54-.54,9.79,9.79,0,0,0,2.56-4.37Zm3.75-2.82h.72V118a14.1,14.1,0,0,0,.86,1.92,16.9,16.9,0,0,0,1.94-1.94l.59.53a24.14,24.14,0,0,1-2.17,2,10,10,0,0,0,2.84,3,7.82,7.82,0,0,0-.6.66,11.23,11.23,0,0,1-3.46-4.5v4.11c0,.87-.42,1.31-1.26,1.31H95.52c0-.22-.08-.48-.14-.8a11.13,11.13,0,0,0,1.14.08.59.59,0,0,0,.68-.66Z"/></g><g class="cls-5"><path d="M13.2,85.15c.77.53,1.74,1.28,2.9,2.25l-1,1.13c-1-.9-1.89-1.69-2.79-2.4Zm1.23,5.08c.43.19.88.36,1.35.53-.49,2-1,4.26-1.58,6.73L12.74,97A60.65,60.65,0,0,0,14.43,90.23Zm-.32-9.51c1,.79,2,1.59,2.87,2.43l-1,1q-1.68-1.68-2.7-2.55ZM28.31,91l.9,1c-.85.68-1.73,1.34-2.65,2a10.07,10.07,0,0,0,3.32,1.67c-.22.28-.55.71-1,1.27a10.74,10.74,0,0,1-6-5.64,20.19,20.19,0,0,1-1.79,1.56v3c.88-.29,1.82-.62,2.82-1,0,.51,0,1,0,1.39-.78.23-1.61.52-2.5.88a11.38,11.38,0,0,0-1.27.58l-.77-1.08a1.47,1.47,0,0,0,.42-1.23V93.77a18.43,18.43,0,0,1-3.18,1.66,10.81,10.81,0,0,0-.91-1.19,18,18,0,0,0,6.39-3.74l-2,.12a7.91,7.91,0,0,0-1.57.26l-.6-1.26A4.25,4.25,0,0,0,19.31,89a21,21,0,0,0,3.1-3.14l1.25.63c-1.18,1.19-2.21,2.17-3.12,2.93,1.79,0,3.53-.07,5.24-.13-.49-.44-1-.91-1.63-1.41L25,87.1q2.52,2,3.64,3l-1,.89-.74-.71-3.11.11a9.31,9.31,0,0,0,1.88,2.8A28.49,28.49,0,0,0,28.31,91ZM21,83.85l1.05.81a31.06,31.06,0,0,1-4.27,3.2,6.73,6.73,0,0,0-.88-1A19.42,19.42,0,0,0,21,83.85Zm-3.18-1.53h5.09c-.24-.53-.5-1-.79-1.56l1.29-.51c.37.71.7,1.4,1,2.07h5.07v1.2H17.84Zm7.5,1.58q2.41,1.59,4.13,2.94l-.84,1c-1-.87-2.39-1.89-4.08-3.08Z"/><path d="M31.2,85.15c.77.53,1.74,1.28,2.9,2.25l-1,1.13c-1-.9-1.89-1.69-2.79-2.4Zm1.23,5.08c.43.19.88.36,1.35.53-.49,2-1,4.26-1.58,6.73L30.74,97A60.65,60.65,0,0,0,32.43,90.23Zm-.32-9.51c1,.79,2,1.59,2.87,2.43l-1,1q-1.68-1.68-2.7-2.55ZM46.31,91l.9,1c-.85.68-1.73,1.34-2.65,2a10.07,10.07,0,0,0,3.32,1.67c-.22.28-.55.71-1,1.27a10.74,10.74,0,0,1-6-5.64,20.19,20.19,0,0,1-1.79,1.56v3c.88-.29,1.82-.62,2.82-1,0,.51,0,1,0,1.39-.78.23-1.61.52-2.5.88a11.38,11.38,0,0,0-1.27.58l-.77-1.08a1.47,1.47,0,0,0,.42-1.23V93.77a18.43,18.43,0,0,1-3.18,1.66,10.81,10.81,0,0,0-.91-1.19,18,18,0,0,0,6.39-3.74l-2,.12a7.91,7.91,0,0,0-1.57.26l-.6-1.26A4.25,4.25,0,0,0,37.31,89a21,21,0,0,0,3.1-3.14l1.25.63c-1.18,1.19-2.21,2.17-3.12,2.93,1.79,0,3.53-.07,5.24-.13-.49-.44-1-.91-1.63-1.41L43,87.1q2.52,2,3.64,3l-1,.89-.74-.71-3.11.11a9.31,9.31,0,0,0,1.88,2.8A28.49,28.49,0,0,0,46.31,91ZM39,83.85l1,.81a31.06,31.06,0,0,1-4.27,3.2,6.73,6.73,0,0,0-.88-1A19.42,19.42,0,0,0,39,83.85Zm-3.18-1.53h5.09c-.24-.53-.5-1-.79-1.56l1.29-.51c.37.71.7,1.4,1,2.07h5.07v1.2H35.84Zm7.5,1.58q2.41,1.59,4.13,2.94l-.84,1c-1-.87-2.39-1.89-4.08-3.08Z"/><path d="M48.56,87.56h3.1V80.39H53.1v7.17H65.51v1.37h-7.7c1.47,3.21,4.15,5.42,8.07,6.63-.4.52-.76,1-1.07,1.44a13.78,13.78,0,0,1-8.49-8.07H53.1v6.36c1.34-.54,2.75-1.16,4.25-1.86,0,.55,0,1.08.07,1.58-1.39.58-2.73,1.18-4,1.81a9.45,9.45,0,0,0-1.3.86l-1.06-1.35a1.55,1.55,0,0,0,.6-1.28V88.93h-3.1Zm5.59-2.15A29.94,29.94,0,0,0,62.54,81l.91,1.14a33.55,33.55,0,0,1-8.61,4.6C54.65,86.32,54.42,85.88,54.15,85.41Z"/><path d="M67.2,85.17c1.19.72,2.37,1.52,3.53,2.37l-1,1.28c-1.18-1-2.31-1.79-3.4-2.51Zm2.18,5.1a14.77,14.77,0,0,0,1.44.82c-.85,2.1-1.67,4.28-2.48,6.54l-1.49-.84A52.24,52.24,0,0,0,69.38,90.27Zm-1.29-9.58c1.09.73,2.22,1.57,3.4,2.51l-.95,1.19c-1.1-1-2.21-1.88-3.31-2.68Zm3,14.37h5.62V83.45H72.15V82.14H83.07v1.31H78.2V95.06h5.64v1.31H71.1Z"/><path d="M88.64,91.09l1.18.9q-2,2.36-4.57,4.85a13.3,13.3,0,0,0-1-1A48.56,48.56,0,0,0,88.64,91.09Zm-2.56-1V88.7l2-4.67H84.63V82.69h4l1-2.41,1.51.32-.92,2.09h11.25V84H89.71l-2,4.67H93V84.85h1.47V88.7h6.28V90H94.44v5.18c0,1.47-.76,2.2-2.28,2.2l-2.64,0c-.07-.45-.16-1-.26-1.58a21.28,21.28,0,0,0,2.49.16A1.09,1.09,0,0,0,93,94.73V90Zm10.07,2.23,1-1q2.43,2,4.85,4.2l-1.09,1.11Q98.49,94.24,96.15,92.27Z"/><path d="M109.82,95.91l4.91.07,5.13-.14c-.2.46-.39.91-.56,1.37l-5.84,0-4-.07a4.78,4.78,0,0,1-4.36-2.11A23.39,23.39,0,0,0,103,97.53l-.75-1.5c.79-.78,1.56-1.52,2.3-2.21V87.91h-2.09v-1.3h3.44V94.1A4.37,4.37,0,0,0,109.82,95.91Zm-5.59-15.19a35.33,35.33,0,0,1,2.1,2.94l-1.18.82c-.66-1.11-1.31-2.13-2-3.06Zm2.32,8.07c.7-.19,1.47-.42,2.33-.68v-3h-2V83.83h2V80.49h1.31v3.34h1.92v1.23h-1.92v2.65l1.87-.61a10.64,10.64,0,0,0,0,1.39l-1.87.58v3.15c0,1.38-.59,2.07-1.79,2.07-.35,0-.86,0-1.51,0a11.35,11.35,0,0,0-.23-1.42,9.07,9.07,0,0,0,1.42.12c.53,0,.8-.32.8-1V89.5l-2,.7ZM119,81l.32,1.28c-1.66.2-3.36.38-5.08.53V86h5.47v1.25h-2.06v7.87h-1.32V87.21H114.2q-.08,5.08-2.53,7.87a10.25,10.25,0,0,0-1.09-1c1.55-1.7,2.31-4.11,2.3-7.23V81.67C114.85,81.55,116.88,81.34,119,81Z"/><path d="M120.81,86.06V84.73h6.07V86a22,22,0,0,1-5.45,9.88,8.91,8.91,0,0,0-1.08-1.07,19.74,19.74,0,0,0,5.12-8.76Zm7.51-5.62h1.42v2.82a26.78,26.78,0,0,0,1.73,3.82,32,32,0,0,0,3.88-3.86l1.18,1a47.07,47.07,0,0,1-4.35,4,20.17,20.17,0,0,0,5.68,6,15.55,15.55,0,0,0-1.19,1.31,22.58,22.58,0,0,1-6.93-9v8.21c0,1.75-.84,2.62-2.51,2.62-.52,0-1.28,0-2.29,0-.06-.43-.15-1-.28-1.58a22.08,22.08,0,0,0,2.29.14c.91,0,1.37-.44,1.37-1.31Z"/></g><rect class="cls-1" x="171" y="66" width="166" height="87"/><rect class="cls-2" x="171" width="166" height="65"/><path class="cls-3" d="M186.58,147.25a8.47,8.47,0,0,0,2.86-.91,6.28,6.28,0,0,1-1.5-1.5l.51.16H188v-6h3v1l-4-1h5v1h3v5h-3.39c-.11.1-.39.71-.8,1.22a16,16,0,0,0,5.41.7q-.24.44-.39.78a15.22,15.22,0,0,1-5.66-1,9.12,9.12,0,0,1-3.17,1.24A4.89,4.89,0,0,0,186.58,147.25ZM188,142h3v-1h-3Zm2.64,1H188v1h2.57C190.57,143.73,190.62,143.38,190.64,143Zm-1,3c.4-.49.67-1,.77-1h-2.35a5,5,0,0,1,1.6,1Zm1.73-2H194v-1h-2.49a8.44,8.44,0,0,1-.09,1Zm3.06-3H192v1h2.49Z"/><path class="cls-3" d="M197,142h1a5.15,5.15,0,0,0-.77-1.42l.52-.37c.22.26.49.62.83,1.09l-.58.7h1.28a10.57,10.57,0,0,1,1-1.8l.69.39a6.5,6.5,0,0,0-.9,1.41H202v1h-5Zm.07,3,.66.31c-.35.73-.69,1.39-1,2a4.94,4.94,0,0,0-.64-.35,14.93,14.93,0,0,0,1-2Zm-.07-1h2v-1h2v1h-2v2.66c.43.69.1,1-.57,1.34h-.94a4.89,4.89,0,0,0-.11-1.08c.38,0,.67.06.89.06a17.84,17.84,0,0,0,1.73-.49V143h-3Zm-.27-5h2.1c-.14.19-.3-.1-.48-.41l.62-.29c.2.33.39.66.56,1l-.32-.3H201v1h-4.22Zm3.1,5.62c.36.49.68.94.95,1.35l-.62.43a13.86,13.86,0,0,0-.9-1.4Zm2.17-5.46a17.72,17.72,0,0,0,3.56-.39l.25.74c-1.28.17-3.81.33-3.81.33V142h4v1h-1v5h-1v-5h-1v.23a10.5,10.5,0,0,1-1.83,4.63c-.15-.2-.32-.4-.51-.62.9-1.13,1.34-4,1.34-4Z"/><path class="cls-3" d="M211.38,144.11a2.1,2.1,0,0,1-.75,1.67,3,3,0,0,1-2,.63,3.3,3.3,0,0,1-1.61-.29v-.77a3,3,0,0,0,1.58.49,1.91,1.91,0,0,0,1.3-.43,1.45,1.45,0,0,0,.5-1.15,1.34,1.34,0,0,0-.52-1.12,2.31,2.31,0,0,0-1.45-.4c-.44,0-.87,0-1.3.06l.29-3.8H211v1h-2.76l-.16,2h.69a3,3,0,0,1,1.93.55A2,2,0,0,1,211.38,144.11Z"/><path class="cls-3" d="M209,141h3.79a3.31,3.31,0,0,1-.41-.5l.64-.3a12.63,12.63,0,0,1,.59,1.8H217v1h-7.3a10.39,10.39,0,0,1-.23,2,8.16,8.16,0,0,1-1.11,2.59c-.15-.21-.32-.44-.53-.69a6.73,6.73,0,0,0,.94-2.1,10.35,10.35,0,0,0,.23-2.42Zm1.14-2H211s-.3-.12-.46,0H213v1h-2.89c-.39.3-.85.8-1.36,1.25a5.29,5.29,0,0,0-.52-.54C209,140.06,210.14,139,210.14,139Zm5.86,3h-6v1h6Zm-5,6h-1v-4h7v2.8s-.1.94-.6,1c-.07,0-.14,0-.21.2h-.81c0-.34-.08-.67-.14-1h1.37c.26,0,.39-.15.39-.44V146h-2v2h-1v-2h-1v2h-1v-2h-1Zm.22-6.89a9.08,9.08,0,0,0-.76-1l.52-.36c.24.24.51.54.81.89ZM211,145h1v-1h-1Zm1.67,0H214v-1h-1.3Zm1.67-6h.78s-.25-.13-.4,0H218v1h-3.64c-.18,0-.38.28-.59.53a4.92,4.92,0,0,0-.58-.44C213.68,139.57,214.34,139,214.34,139Zm1.14,2.12a9.18,9.18,0,0,0-.77-1l.5-.35c.34.35.62.66.83.91ZM216,144h-1v1h1Z"/><text class="cls-4" transform="translate(305.46 146.6)">前往</text><g class="cls-5"><path d="M183.18,108.13c.38.26.87.64,1.45,1.12l-.48.57c-.49-.45-1-.85-1.4-1.2Zm.61,2.54.68.26c-.25,1-.51,2.13-.79,3.37l-.73-.24A29.94,29.94,0,0,0,183.79,110.67Zm-.15-4.76c.5.4,1,.8,1.43,1.22l-.5.52c-.57-.56-1-1-1.36-1.27Zm7.1,5.15.45.5c-.43.34-.87.67-1.33,1a5.07,5.07,0,0,0,1.66.83L191,114a5.39,5.39,0,0,1-3-2.82,9.37,9.37,0,0,1-.89.78v1.51l1.41-.49c0,.25,0,.49,0,.69-.39.12-.81.27-1.25.44-.22.09-.43.19-.63.29l-.39-.53a.76.76,0,0,0,.21-.62v-.83a10,10,0,0,1-1.59.83,5.37,5.37,0,0,0-.46-.6,8.91,8.91,0,0,0,3.2-1.87l-1,.06a5.51,5.51,0,0,0-.78.13l-.3-.63a1.84,1.84,0,0,0,.69-.32,10.48,10.48,0,0,0,1.54-1.57l.63.32a20.9,20.9,0,0,1-1.56,1.46c.89,0,1.77,0,2.62-.06-.24-.22-.52-.46-.82-.71l.42-.38c.83.66,1.44,1.16,1.82,1.52l-.49.44c-.11-.11-.23-.23-.37-.35l-1.55.05a4.59,4.59,0,0,0,.94,1.4A14.22,14.22,0,0,0,190.74,111.06Zm-3.65-3.58.53.4a15.46,15.46,0,0,1-2.14,1.6A4.23,4.23,0,0,0,185,109,9.4,9.4,0,0,0,187.09,107.48Zm-1.59-.77H188q-.18-.39-.39-.78l.64-.25c.19.35.36.7.51,1h2.53v.6H185.5Zm3.75.79q1.2.8,2.07,1.47l-.42.5c-.52-.43-1.2-.94-2-1.54Z"/><path d="M192.18,108.13c.38.26.87.64,1.45,1.12l-.48.57c-.49-.45-1-.85-1.4-1.2Zm.61,2.54.68.26c-.25,1-.51,2.13-.79,3.37l-.73-.24A29.94,29.94,0,0,0,192.79,110.67Zm-.15-4.76c.5.4,1,.8,1.43,1.22l-.5.52c-.57-.56-1-1-1.36-1.27Zm7.1,5.15.45.5c-.43.34-.87.67-1.33,1a5.07,5.07,0,0,0,1.66.83L200,114a5.39,5.39,0,0,1-3-2.82,9.37,9.37,0,0,1-.89.78v1.51l1.41-.49c0,.25,0,.49,0,.69-.39.12-.81.27-1.25.44-.22.09-.43.19-.63.29l-.39-.53a.76.76,0,0,0,.21-.62v-.83a10,10,0,0,1-1.59.83,5.37,5.37,0,0,0-.46-.6,8.91,8.91,0,0,0,3.2-1.87l-1,.06a5.51,5.51,0,0,0-.78.13l-.3-.63a1.84,1.84,0,0,0,.69-.32,10.48,10.48,0,0,0,1.54-1.57l.63.32a20.9,20.9,0,0,1-1.56,1.46c.89,0,1.77,0,2.62-.06-.24-.22-.52-.46-.82-.71l.42-.38c.83.66,1.44,1.16,1.82,1.52l-.49.44c-.11-.11-.23-.23-.37-.35l-1.55.05a4.59,4.59,0,0,0,.94,1.4A14.22,14.22,0,0,0,199.74,111.06Zm-3.65-3.58.53.4a15.46,15.46,0,0,1-2.14,1.6A4.23,4.23,0,0,0,194,109,9.4,9.4,0,0,0,196.09,107.48Zm-1.59-.77H197q-.18-.39-.39-.78l.64-.25c.19.35.36.7.51,1h2.53v.6H194.5Zm3.75.79q1.2.8,2.07,1.47l-.42.5c-.52-.43-1.2-.94-2-1.54Z"/><path d="M200.86,109.33h1.55v-3.58h.72v3.58h6.2V110h-3.85a6.16,6.16,0,0,0,4,3.31l-.54.72a6.87,6.87,0,0,1-4.24-4h-1.61v3.18q1-.4,2.13-.93c0,.27,0,.54,0,.79-.7.29-1.36.59-2,.9a4.35,4.35,0,0,0-.65.44l-.53-.68a.77.77,0,0,0,.3-.64V110h-1.55Zm2.8-1.07a15.28,15.28,0,0,0,4.19-2.22l.46.57a16.8,16.8,0,0,1-4.31,2.3C203.91,108.71,203.79,108.5,203.66,108.26Z"/><path d="M210.18,108.14c.6.36,1.18.76,1.76,1.18l-.49.65a20.47,20.47,0,0,0-1.69-1.26Zm1.09,2.55a6.37,6.37,0,0,0,.72.41c-.42,1.05-.84,2.14-1.24,3.27L210,114A24.92,24.92,0,0,0,211.27,110.69Zm-.64-4.79c.54.36,1.11.78,1.69,1.25l-.47.6c-.55-.49-1.1-.94-1.65-1.34Zm1.5,7.19h2.81v-5.81h-2.28v-.65h5.45v.65h-2.43v5.81h2.82v.65h-6.37Z"/><path d="M220.9,111.1l.59.45c-.67.78-1.43,1.59-2.29,2.42a5.83,5.83,0,0,0-.5-.49A23.67,23.67,0,0,0,220.9,111.1Zm-1.28-.53v-.67l1-2.33H218.9v-.67h2l.52-1.21.75.16-.45,1.05h5.62v.67h-5.91l-1,2.33h2.64V108h.74v1.92h3.14v.67H223.8v2.6c0,.73-.38,1.09-1.14,1.09h-1.32c0-.22-.08-.49-.13-.79a9.73,9.73,0,0,0,1.25.08c.4,0,.6-.2.6-.62v-2.35Zm5,1.12.5-.49c.8.67,1.61,1.37,2.42,2.11l-.54.55C226.22,113.07,225.43,112.34,224.65,111.69Z"/><path d="M231.49,113.51l2.45,0,2.57-.07c-.1.23-.19.46-.28.69h-2.92l-2,0a2.4,2.4,0,0,1-2.17-1,10.73,10.73,0,0,0-1.07,1.23l-.38-.75,1.15-1.11v-2.95h-1v-.65h1.72v3.74A2.21,2.21,0,0,0,231.49,113.51Zm-2.79-7.6c.37.47.71,1,1,1.47l-.59.41c-.32-.55-.65-1.06-1-1.53Zm1.16,4,1.16-.34v-1.52h-1v-.62h1V105.8h.66v1.67h.95v.62h-.95v1.32l.93-.31c0,.28,0,.51,0,.7-.3.09-.61.18-.93.29v1.57c0,.69-.3,1-.9,1-.18,0-.43,0-.76,0a5.52,5.52,0,0,0-.11-.71,4.53,4.53,0,0,0,.71.06c.27,0,.4-.16.4-.48V110.3l-1,.35Zm6.2-3.89.16.64c-.83.1-1.68.19-2.54.27v1.56h2.73v.63h-1v3.93h-.66v-3.93h-1a5.84,5.84,0,0,1-1.27,3.93,4.6,4.6,0,0,0-.54-.52A5.16,5.16,0,0,0,233,109v-2.56C234,106.33,235,106.22,236.06,106.06Z"/><path d="M237,108.59v-.67h3v.64a11,11,0,0,1-2.73,4.94,5.5,5.5,0,0,0-.53-.54,9.86,9.86,0,0,0,2.55-4.37Zm3.76-2.82h.71v1.41a12.42,12.42,0,0,0,.87,1.91,16,16,0,0,0,1.93-1.93l.59.53a22.86,22.86,0,0,1-2.17,2,10,10,0,0,0,2.84,3,7.82,7.82,0,0,0-.6.66,11.32,11.32,0,0,1-3.46-4.5v4.1c0,.88-.42,1.31-1.26,1.31h-1.14c0-.22-.08-.49-.14-.8a11,11,0,0,0,1.14.07c.46,0,.69-.21.69-.65Z"/><path d="M246.18,108.13c.38.26.87.64,1.45,1.12l-.48.57c-.49-.45-1-.85-1.4-1.2Zm.61,2.54.68.26c-.25,1-.51,2.13-.79,3.37l-.73-.24A29.94,29.94,0,0,0,246.79,110.67Zm-.15-4.76c.5.4,1,.8,1.43,1.22l-.5.52c-.57-.56-1-1-1.36-1.27Zm7.1,5.15.45.5c-.43.34-.87.67-1.33,1a5.07,5.07,0,0,0,1.66.83L254,114a5.39,5.39,0,0,1-3-2.82,9.37,9.37,0,0,1-.89.78v1.51l1.41-.49c0,.25,0,.49,0,.69-.39.12-.81.27-1.25.44-.22.09-.43.19-.63.29l-.39-.53a.76.76,0,0,0,.21-.62v-.83a10,10,0,0,1-1.59.83,5.37,5.37,0,0,0-.46-.6,8.91,8.91,0,0,0,3.2-1.87l-1,.06a5.51,5.51,0,0,0-.78.13l-.3-.63a1.84,1.84,0,0,0,.69-.32,10.48,10.48,0,0,0,1.54-1.57l.63.32a20.9,20.9,0,0,1-1.56,1.46c.89,0,1.77,0,2.62-.06-.24-.22-.52-.46-.82-.71l.42-.38c.83.66,1.44,1.16,1.82,1.52l-.49.44c-.11-.11-.23-.23-.37-.35l-1.55.05a4.59,4.59,0,0,0,.94,1.4A14.22,14.22,0,0,0,253.74,111.06Zm-3.65-3.58.53.4a15.46,15.46,0,0,1-2.14,1.6A4.23,4.23,0,0,0,248,109,9.4,9.4,0,0,0,250.09,107.48Zm-1.59-.77H251q-.18-.39-.39-.78l.64-.25c.19.35.36.7.51,1h2.53v.6H248.5Zm3.75.79q1.2.8,2.07,1.47l-.42.5c-.52-.43-1.2-.94-2-1.54Z"/><path d="M255.18,108.13c.38.26.87.64,1.45,1.12l-.48.57c-.49-.45-.95-.85-1.4-1.2Zm.61,2.54.68.26c-.25,1-.51,2.13-.79,3.37l-.73-.24A29.94,29.94,0,0,0,255.79,110.67Zm-.15-4.76c.5.4,1,.8,1.43,1.22l-.5.52c-.57-.56-1-1-1.36-1.27Zm7.1,5.15.45.5c-.43.34-.87.67-1.33,1a5.07,5.07,0,0,0,1.66.83L263,114a5.39,5.39,0,0,1-3-2.82,9.37,9.37,0,0,1-.89.78v1.51l1.41-.49c0,.25,0,.49,0,.69-.39.12-.81.27-1.25.44-.22.09-.43.19-.63.29l-.39-.53a.76.76,0,0,0,.21-.62v-.83a10,10,0,0,1-1.59.83,5.37,5.37,0,0,0-.46-.6,8.91,8.91,0,0,0,3.2-1.87l-1,.06a5.51,5.51,0,0,0-.78.13l-.3-.63a1.84,1.84,0,0,0,.69-.32,10.48,10.48,0,0,0,1.54-1.57l.63.32a20.9,20.9,0,0,1-1.56,1.46c.89,0,1.77,0,2.62-.06-.24-.22-.52-.46-.82-.71l.42-.38c.83.66,1.44,1.16,1.82,1.52l-.49.44c-.11-.11-.23-.23-.37-.35l-1.55.05a4.59,4.59,0,0,0,.94,1.4A14.22,14.22,0,0,0,262.74,111.06Zm-3.65-3.58.53.4a15.46,15.46,0,0,1-2.14,1.6A4.23,4.23,0,0,0,257,109,9.4,9.4,0,0,0,259.09,107.48Zm-1.59-.77H260q-.18-.39-.39-.78l.64-.25c.19.35.36.7.51,1h2.53v.6H257.5Zm3.75.79q1.2.8,2.07,1.47l-.42.5c-.52-.43-1.2-.94-2-1.54Z"/><path d="M263.86,109.33h1.55v-3.58h.72v3.58h6.2V110h-3.85a6.16,6.16,0,0,0,4,3.31l-.54.72a6.87,6.87,0,0,1-4.24-4h-1.61v3.18q1-.4,2.13-.93c0,.27,0,.54,0,.79-.7.29-1.36.59-2,.9a4.35,4.35,0,0,0-.65.44l-.53-.68a.77.77,0,0,0,.3-.64V110h-1.55Zm2.8-1.07a15.28,15.28,0,0,0,4.19-2.22l.46.57a16.8,16.8,0,0,1-4.31,2.3C266.91,108.71,266.79,108.5,266.66,108.26Z"/><path d="M273.18,108.14c.6.36,1.18.76,1.76,1.18l-.49.65a20.47,20.47,0,0,0-1.69-1.26Zm1.09,2.55a6.37,6.37,0,0,0,.72.41c-.42,1.05-.84,2.14-1.24,3.27L273,114A24.92,24.92,0,0,0,274.27,110.69Zm-.64-4.79c.54.36,1.11.78,1.69,1.25l-.47.6c-.55-.49-1.1-.94-1.65-1.34Zm1.5,7.19h2.81v-5.81h-2.28v-.65h5.45v.65h-2.43v5.81h2.82v.65h-6.37Z"/></g><g class="cls-5"><path d="M184.9,121.9l.59.45c-.67.78-1.43,1.59-2.29,2.42-.15-.16-.31-.32-.5-.49A23.67,23.67,0,0,0,184.9,121.9Zm-1.28-.53v-.67l1-2.33H182.9v-.67h2l.52-1.2.75.15-.45,1h5.62v.67h-5.91l-1,2.33h2.64v-1.92h.74v1.92h3.14v.67H187.8V124c0,.73-.38,1.09-1.14,1.09h-1.32c0-.23-.08-.5-.13-.8a9.73,9.73,0,0,0,1.25.08c.4,0,.6-.2.6-.62v-2.35Zm5,1.12.5-.49c.8.67,1.61,1.37,2.42,2.11l-.54.55C190.22,123.87,189.43,123.15,188.65,122.49Z"/><path d="M195.49,124.31l2.45,0,2.57-.07c-.1.23-.19.46-.28.69l-2.92,0-2,0a2.4,2.4,0,0,1-2.17-1,10.73,10.73,0,0,0-1.07,1.23l-.38-.75,1.15-1.11v-3h-1v-.65h1.72v3.74A2.21,2.21,0,0,0,195.49,124.31Zm-2.79-7.6c.37.47.71,1,1,1.47l-.59.41c-.32-.55-.65-1.06-1-1.52Zm1.16,4,1.16-.34v-1.52h-1v-.62h1V116.6h.66v1.67h.95v.62h-.95v1.32l.93-.3q0,.41,0,.69c-.3.09-.61.18-.93.29v1.57c0,.69-.3,1-.9,1-.18,0-.43,0-.76,0a5.52,5.52,0,0,0-.11-.71,4.53,4.53,0,0,0,.71.06c.27,0,.4-.16.4-.48V121.1l-1,.35Zm6.2-3.89.16.64c-.83.11-1.68.19-2.54.27v1.56h2.73V120h-1v3.94h-.66V120h-1a5.89,5.89,0,0,1-1.27,3.94,3.9,3.9,0,0,0-.54-.53,5.16,5.16,0,0,0,1.15-3.62v-2.56C198,117.13,199,117,200.06,116.86Z"/><path d="M201,119.39v-.67h3v.64a11,11,0,0,1-2.73,4.94,5.5,5.5,0,0,0-.53-.54,9.86,9.86,0,0,0,2.55-4.37Zm3.76-2.82h.71V118a13,13,0,0,0,.87,1.92,16.85,16.85,0,0,0,1.93-1.94l.59.53a22.86,22.86,0,0,1-2.17,2,10,10,0,0,0,2.84,3,7.82,7.82,0,0,0-.6.66,11.32,11.32,0,0,1-3.46-4.5v4.11c0,.87-.42,1.31-1.26,1.31h-1.14c0-.22-.08-.48-.14-.8.47,0,.85.08,1.14.08q.69,0,.69-.66Z"/><path d="M210.18,118.93c.38.26.87.64,1.45,1.12l-.48.57c-.49-.45-1-.85-1.4-1.2Zm.61,2.54.68.26c-.25,1-.51,2.13-.79,3.37l-.73-.24A29.94,29.94,0,0,0,210.79,121.47Zm-.15-4.76c.5.4,1,.8,1.43,1.22l-.5.52c-.57-.56-1-1-1.36-1.27Zm7.1,5.15.45.5c-.43.34-.87.67-1.33,1a5.07,5.07,0,0,0,1.66.83l-.48.64a5.39,5.39,0,0,1-3-2.82,9.37,9.37,0,0,1-.89.78v1.51l1.41-.49q0,.39,0,.69c-.39.12-.81.27-1.25.44-.22.09-.43.19-.63.29l-.39-.53a.74.74,0,0,0,.21-.62v-.83a10,10,0,0,1-1.59.83,5.37,5.37,0,0,0-.46-.6,8.88,8.88,0,0,0,3.2-1.86l-1,0a5.51,5.51,0,0,0-.78.13l-.3-.63a1.84,1.84,0,0,0,.69-.32,10.48,10.48,0,0,0,1.54-1.57l.63.32q-.89.9-1.56,1.47l2.62-.07c-.24-.22-.52-.45-.82-.71l.42-.37c.83.65,1.44,1.16,1.82,1.51l-.49.44c-.11-.11-.23-.23-.37-.35l-1.55.06a4.54,4.54,0,0,0,.94,1.39A14.22,14.22,0,0,0,217.74,121.86Zm-3.65-3.58.53.4a15.46,15.46,0,0,1-2.14,1.6,4.23,4.23,0,0,0-.44-.51A9.4,9.4,0,0,0,214.09,118.28Zm-1.59-.77H215q-.18-.39-.39-.78l.64-.25c.19.36.36.7.51,1h2.53v.6H212.5Zm3.75.8c.8.52,1.49,1,2.07,1.46l-.42.5q-.78-.64-2-1.53Z"/><path d="M219.18,118.93c.38.26.87.64,1.45,1.12l-.48.57c-.49-.45-1-.85-1.4-1.2Zm.61,2.54.68.26c-.25,1-.51,2.13-.79,3.37l-.73-.24A29.94,29.94,0,0,0,219.79,121.47Zm-.15-4.76c.5.4,1,.8,1.43,1.22l-.5.52c-.57-.56-1-1-1.36-1.27Zm7.1,5.15.45.5c-.43.34-.87.67-1.33,1a5.07,5.07,0,0,0,1.66.83l-.48.64a5.39,5.39,0,0,1-3-2.82,9.37,9.37,0,0,1-.89.78v1.51l1.41-.49q0,.39,0,.69c-.39.12-.81.27-1.25.44-.22.09-.43.19-.63.29l-.39-.53a.74.74,0,0,0,.21-.62v-.83a10,10,0,0,1-1.59.83,5.37,5.37,0,0,0-.46-.6,8.88,8.88,0,0,0,3.2-1.86l-1,0a5.51,5.51,0,0,0-.78.13l-.3-.63a1.84,1.84,0,0,0,.69-.32,10.48,10.48,0,0,0,1.54-1.57l.63.32q-.89.9-1.56,1.47l2.62-.07c-.24-.22-.52-.45-.82-.71l.42-.37c.83.65,1.44,1.16,1.82,1.51l-.49.44c-.11-.11-.23-.23-.37-.35l-1.55.06a4.54,4.54,0,0,0,.94,1.39A14.22,14.22,0,0,0,226.74,121.86Zm-3.65-3.58.53.4a15.46,15.46,0,0,1-2.14,1.6,4.23,4.23,0,0,0-.44-.51A9.4,9.4,0,0,0,223.09,118.28Zm-1.59-.77H224q-.18-.39-.39-.78l.64-.25c.19.36.36.7.51,1h2.53v.6H221.5Zm3.75.8c.8.52,1.49,1,2.07,1.46l-.42.5q-.78-.64-2-1.53Z"/><path d="M227.86,120.13h1.55v-3.58h.72v3.58h6.2v.69h-3.85a6.16,6.16,0,0,0,4,3.31l-.54.72a6.87,6.87,0,0,1-4.24-4h-1.61V124q1-.41,2.13-.93c0,.27,0,.54,0,.79-.7.29-1.36.59-2,.9a4.35,4.35,0,0,0-.65.44l-.53-.68a.77.77,0,0,0,.3-.64v-3.06h-1.55Zm2.8-1.07a15,15,0,0,0,4.19-2.22l.46.57a16.8,16.8,0,0,1-4.31,2.3C230.91,119.51,230.79,119.3,230.66,119.06Z"/><path d="M237.18,118.94c.6.36,1.18.76,1.76,1.18l-.49.65a20.47,20.47,0,0,0-1.69-1.26Zm1.09,2.55a6.37,6.37,0,0,0,.72.41c-.42,1-.84,2.14-1.24,3.27l-.75-.42A24.38,24.38,0,0,0,238.27,121.49Zm-.64-4.79c.54.37,1.11.79,1.69,1.25l-.47.6c-.55-.49-1.1-.94-1.65-1.34Zm1.5,7.19h2.81v-5.81h-2.28v-.65h5.45v.65h-2.43v5.81h2.82v.65h-6.37Z"/><path d="M247.9,121.9l.59.45c-.67.78-1.43,1.59-2.29,2.42-.15-.16-.31-.32-.5-.49A23.67,23.67,0,0,0,247.9,121.9Zm-1.28-.53v-.67l1-2.33H245.9v-.67h2l.52-1.2.75.15-.45,1h5.62v.67h-5.91l-1,2.33h2.64v-1.92h.74v1.92h3.14v.67H250.8V124c0,.73-.38,1.09-1.14,1.09h-1.32c0-.23-.08-.5-.13-.8a9.73,9.73,0,0,0,1.25.08c.4,0,.6-.2.6-.62v-2.35Zm5,1.12.5-.49c.8.67,1.61,1.37,2.42,2.11l-.54.55C253.22,123.87,252.43,123.15,251.65,122.49Z"/><path d="M258.49,124.31l2.45,0,2.57-.07c-.1.23-.19.46-.28.69l-2.92,0-2,0a2.4,2.4,0,0,1-2.17-1,10.73,10.73,0,0,0-1.07,1.23l-.38-.75,1.15-1.11v-3h-1v-.65h1.72v3.74A2.21,2.21,0,0,0,258.49,124.31Zm-2.79-7.6c.37.47.71,1,1,1.47l-.59.41c-.32-.55-.65-1.06-1-1.52Zm1.16,4,1.16-.34v-1.52h-1v-.62h1V116.6h.66v1.67h.95v.62h-.95v1.32l.93-.3q0,.41,0,.69c-.3.09-.61.18-.93.29v1.57c0,.69-.3,1-.9,1-.18,0-.43,0-.76,0a5.52,5.52,0,0,0-.11-.71,4.53,4.53,0,0,0,.71.06c.27,0,.4-.16.4-.48V121.1l-1,.35Zm6.2-3.89.16.64c-.83.11-1.68.19-2.54.27v1.56h2.73V120h-1v3.94h-.66V120h-1.05a5.89,5.89,0,0,1-1.27,3.94,3.9,3.9,0,0,0-.54-.53,5.16,5.16,0,0,0,1.15-3.62v-2.56C261,117.13,262,117,263.06,116.86Z"/><path d="M264,119.39v-.67h3v.64a11,11,0,0,1-2.73,4.94,5.5,5.5,0,0,0-.53-.54,9.86,9.86,0,0,0,2.55-4.37Zm3.76-2.82h.71V118a13,13,0,0,0,.87,1.92,16.85,16.85,0,0,0,1.93-1.94l.59.53a22.86,22.86,0,0,1-2.17,2,10,10,0,0,0,2.84,3,7.82,7.82,0,0,0-.6.66,11.32,11.32,0,0,1-3.46-4.5v4.11c0,.87-.42,1.31-1.26,1.31h-1.14c0-.22-.08-.48-.14-.8.47,0,.85.08,1.14.08q.69,0,.69-.66Z"/></g><g class="cls-5"><path d="M183.73,85.15c.78.53,1.74,1.28,2.9,2.25l-1,1.13c-1-.9-1.9-1.69-2.8-2.4ZM185,90.23c.44.19.89.36,1.36.53-.5,2-1,4.26-1.59,6.73L183.27,97A58.54,58.54,0,0,0,185,90.23Zm-.31-9.51c1,.79,2,1.59,2.86,2.43l-1,1c-1.13-1.12-2-2-2.71-2.55ZM198.85,91l.9,1c-.85.68-1.74,1.34-2.66,2a10.07,10.07,0,0,0,3.32,1.67c-.22.28-.54.71-1,1.27a10.76,10.76,0,0,1-6-5.64,20.07,20.07,0,0,1-1.78,1.56v3c.88-.29,1.81-.62,2.81-1,0,.51,0,1,0,1.39-.77.23-1.61.52-2.5.88a12.1,12.1,0,0,0-1.26.58L190,96.66a1.44,1.44,0,0,0,.43-1.23V93.77a18.9,18.9,0,0,1-3.19,1.66,9.69,9.69,0,0,0-.91-1.19,17.9,17.9,0,0,0,6.4-3.74l-2,.12a7.81,7.81,0,0,0-1.56.26l-.6-1.26a4.25,4.25,0,0,0,1.37-.64,20.5,20.5,0,0,0,3.09-3.14l1.25.63q-1.75,1.78-3.11,2.93c1.78,0,3.53-.07,5.24-.13-.49-.44-1-.91-1.64-1.41l.83-.76q2.52,2,3.64,3l-1,.89-.74-.71-3.11.11a9.49,9.49,0,0,0,1.88,2.8A30.11,30.11,0,0,0,198.85,91Zm-7.3-7.17,1.06.81a32.31,32.31,0,0,1-4.27,3.2,7.34,7.34,0,0,0-.88-1A19.35,19.35,0,0,0,191.55,83.85Zm-3.18-1.53h5.09q-.36-.79-.78-1.56l1.28-.51c.37.71.71,1.4,1,2.07H200v1.2H188.37Zm7.51,1.58q2.4,1.59,4.13,2.94l-.84,1c-1-.87-2.4-1.89-4.08-3.08Z"/><path d="M201.73,85.15c.78.53,1.74,1.28,2.9,2.25l-1,1.13c-1-.9-1.9-1.69-2.8-2.4ZM203,90.23c.44.19.89.36,1.36.53-.5,2-1,4.26-1.59,6.73L201.27,97A58.54,58.54,0,0,0,203,90.23Zm-.31-9.51c1,.79,2,1.59,2.86,2.43l-1,1c-1.13-1.12-2-2-2.71-2.55ZM216.85,91l.9,1c-.85.68-1.74,1.34-2.66,2a10.07,10.07,0,0,0,3.32,1.67c-.22.28-.54.71-1,1.27a10.76,10.76,0,0,1-6-5.64,20.07,20.07,0,0,1-1.78,1.56v3c.88-.29,1.81-.62,2.81-1,0,.51,0,1,0,1.39-.77.23-1.61.52-2.5.88a12.1,12.1,0,0,0-1.26.58L208,96.66a1.44,1.44,0,0,0,.43-1.23V93.77a18.9,18.9,0,0,1-3.19,1.66,9.69,9.69,0,0,0-.91-1.19,17.9,17.9,0,0,0,6.4-3.74l-2,.12a7.81,7.81,0,0,0-1.56.26l-.6-1.26a4.25,4.25,0,0,0,1.37-.64,20.5,20.5,0,0,0,3.09-3.14l1.25.63q-1.75,1.78-3.11,2.93c1.78,0,3.53-.07,5.24-.13-.49-.44-1-.91-1.64-1.41l.83-.76q2.52,2,3.64,3l-1,.89-.74-.71-3.11.11a9.49,9.49,0,0,0,1.88,2.8A30.11,30.11,0,0,0,216.85,91Zm-7.3-7.17,1.06.81a32.31,32.31,0,0,1-4.27,3.2,7.34,7.34,0,0,0-.88-1A19.35,19.35,0,0,0,209.55,83.85Zm-3.18-1.53h5.09q-.36-.79-.78-1.56l1.28-.51c.37.71.71,1.4,1,2.07H218v1.2H206.37Zm7.51,1.58q2.4,1.59,4.13,2.94l-.84,1c-1-.87-2.4-1.89-4.08-3.08Z"/><path d="M219.1,87.56h3.09V80.39h1.44v7.17H236v1.37h-7.69q2.19,4.81,8.06,6.63L235.34,97a13.83,13.83,0,0,1-8.49-8.07h-3.22v6.36q2-.81,4.26-1.86c0,.55,0,1.08.07,1.58-1.4.58-2.73,1.18-4,1.81a10.1,10.1,0,0,0-1.3.86l-1.05-1.35a1.57,1.57,0,0,0,.59-1.28V88.93H219.1Zm5.59-2.15A29.89,29.89,0,0,0,233.07,81l.92,1.14a33.61,33.61,0,0,1-8.62,4.6C225.19,86.32,225,85.88,224.69,85.41Z"/><path d="M237.73,85.17c1.2.72,2.37,1.52,3.54,2.37l-1,1.28a40.79,40.79,0,0,0-3.39-2.51Zm2.18,5.1a14.77,14.77,0,0,0,1.44.82q-1.26,3.15-2.48,6.54l-1.49-.84A50.73,50.73,0,0,0,239.91,90.27Zm-1.28-9.58c1.09.73,2.22,1.57,3.39,2.51l-1,1.19c-1.1-1-2.2-1.88-3.3-2.68Zm3,14.37h5.63V83.45h-4.57V82.14H253.6v1.31h-4.86V95.06h5.64v1.31H241.63Z"/><path d="M259.18,91.09l1.17.9a66.59,66.59,0,0,1-4.57,4.85,11.64,11.64,0,0,0-1-1A48.66,48.66,0,0,0,259.18,91.09Zm-2.57-1V88.7l2-4.67h-3.45V82.69h4l1-2.41,1.51.32-.91,2.09h11.25V84H260.25l-2,4.67h5.29V84.85H265V88.7h6.27V90H265v5.18c0,1.47-.76,2.2-2.29,2.2l-2.63,0c-.07-.45-.16-1-.27-1.58a21.6,21.6,0,0,0,2.5.16c.81,0,1.21-.41,1.21-1.25V90Zm10.07,2.23,1-1q2.41,2,4.85,4.2l-1.09,1.11Q269,94.24,266.68,92.27Z"/><path d="M280.36,95.91l4.9.07,5.14-.14c-.2.46-.39.91-.57,1.37l-5.83,0-4-.07a4.76,4.76,0,0,1-4.35-2.11,23.39,23.39,0,0,0-2.13,2.47l-.76-1.5c.79-.78,1.56-1.52,2.31-2.21V87.91H273v-1.3h3.45V94.1A4.37,4.37,0,0,0,280.36,95.91Zm-5.59-15.19a35.24,35.24,0,0,1,2.09,2.94l-1.18.82c-.65-1.11-1.31-2.13-2-3.06Zm2.32,8.07c.69-.19,1.46-.42,2.32-.68v-3h-2V83.83h2V80.49h1.32v3.34h1.91v1.23h-1.91v2.65l1.86-.61c0,.55,0,1,0,1.39l-1.86.58v3.15c0,1.38-.6,2.07-1.79,2.07-.36,0-.86,0-1.52,0a9.77,9.77,0,0,0-.23-1.42,9.19,9.19,0,0,0,1.43.12c.53,0,.79-.32.79-1V89.5l-2,.7ZM289.5,81l.32,1.28c-1.67.2-3.36.38-5.08.53V86h5.46v1.25h-2.05v7.87h-1.32V87.21h-2.09q-.08,5.08-2.54,7.87a9.37,9.37,0,0,0-1.09-1q2.33-2.55,2.31-7.23V81.67C285.39,81.55,287.41,81.34,289.5,81Z"/><path d="M291.34,86.06V84.73h6.07V86A21.89,21.89,0,0,1,292,95.89a9.73,9.73,0,0,0-1.07-1.07A19.72,19.72,0,0,0,296,86.06Zm7.51-5.62h1.42v2.82A28,28,0,0,0,302,87.08a32.71,32.71,0,0,0,3.87-3.86l1.18,1a47,47,0,0,1-4.34,4,20,20,0,0,0,5.68,6,14.27,14.27,0,0,0-1.2,1.31,22.67,22.67,0,0,1-6.93-9v8.21c0,1.75-.83,2.62-2.51,2.62-.51,0-1.28,0-2.28,0-.06-.43-.16-1-.29-1.58a22.08,22.08,0,0,0,2.29.14c.91,0,1.37-.44,1.37-1.31Z"/></g></g></g></svg>