<svg xmlns="http://www.w3.org/2000/svg" viewBox="0 0 409 152.93"><defs><style>.cls-1{fill:#f0f0f0;}</style></defs><title>11资源 2bg9004</title><g id="图层_2" data-name="图层 2"><g id="图层_1-2" data-name="图层 1"><rect class="cls-1" x="19.11" width="296.11" height="15.43"/><rect class="cls-1" width="14.22" height="15.43"/><rect class="cls-1" x="368.11" width="40.89" height="15.43"/><rect class="cls-1" x="225.89" width="14.22" height="15.43"/><rect class="cls-1" x="321.33" width="40.89" height="15.43"/><rect class="cls-1" x="19.11" y="22.92" width="296.11" height="15.43"/><rect class="cls-1" y="22.92" width="14.22" height="15.43"/><rect class="cls-1" x="368.11" y="22.92" width="40.89" height="15.43"/><rect class="cls-1" x="225.89" y="22.92" width="14.22" height="15.43"/><rect class="cls-1" x="321.33" y="22.92" width="40.89" height="15.43"/><rect class="cls-1" x="19.11" y="45.83" width="296.11" height="15.43"/><rect class="cls-1" y="45.83" width="14.22" height="15.43"/><rect class="cls-1" x="368.11" y="45.83" width="40.89" height="15.43"/><rect class="cls-1" x="225.89" y="45.83" width="14.22" height="15.43"/><rect class="cls-1" x="321.33" y="45.83" width="40.89" height="15.43"/><rect class="cls-1" x="19.11" y="68.75" width="296.11" height="15.43"/><rect class="cls-1" y="68.75" width="14.22" height="15.43"/><rect class="cls-1" x="368.11" y="68.75" width="40.89" height="15.43"/><rect class="cls-1" x="225.89" y="68.75" width="14.22" height="15.43"/><rect class="cls-1" x="321.33" y="68.75" width="40.89" height="15.43"/><rect class="cls-1" x="19.11" y="91.67" width="296.11" height="15.43"/><rect class="cls-1" y="91.67" width="14.22" height="15.43"/><rect class="cls-1" x="368.11" y="91.67" width="40.89" height="15.43"/><rect class="cls-1" x="225.89" y="91.67" width="14.22" height="15.43"/><rect class="cls-1" x="321.33" y="91.67" width="40.89" height="15.43"/><rect class="cls-1" x="19.11" y="114.58" width="296.11" height="15.43"/><rect class="cls-1" y="114.58" width="14.22" height="15.43"/><rect class="cls-1" x="368.11" y="114.58" width="40.89" height="15.43"/><rect class="cls-1" x="225.89" y="114.58" width="14.22" height="15.43"/><rect class="cls-1" x="321.33" y="114.58" width="40.89" height="15.43"/><rect class="cls-1" x="19.11" y="137.5" width="296.11" height="15.43"/><rect class="cls-1" y="137.5" width="14.22" height="15.43"/><rect class="cls-1" x="368.11" y="137.5" width="40.89" height="15.43"/><rect class="cls-1" x="225.89" y="137.5" width="14.22" height="15.43"/><rect class="cls-1" x="321.33" y="137.5" width="40.89" height="15.43"/></g></g></svg>