<svg xmlns="http://www.w3.org/2000/svg" xmlns:xlink="http://www.w3.org/1999/xlink" viewBox="0 0 661.5 473.83"><defs><style>.cls-1{isolation:isolate;}.cls-2{fill:#ebfcf5;}.cls-15,.cls-3,.cls-6,.cls-7{fill:none;stroke-miterlimit:10;}.cls-3,.cls-6,.cls-7{stroke-linecap:round;}.cls-3{stroke-width:2.57px;stroke:url(#linear-gradient);}.cls-4{fill:url(#linear-gradient-2);}.cls-5{fill:url(#linear-gradient-3);}.cls-6,.cls-7{stroke-width:1.28px;}.cls-6{stroke:url(#linear-gradient-4);}.cls-7{stroke:url(#linear-gradient-5);}.cls-8{fill:url(#linear-gradient-6);}.cls-9{fill:url(#linear-gradient-7);}.cls-10{fill:url(#linear-gradient-8);}.cls-11{fill:url(#linear-gradient-9);}.cls-12,.cls-14{opacity:0.5;}.cls-12,.cls-14,.cls-17,.cls-26{mix-blend-mode:multiply;}.cls-12{fill:url(#linear-gradient-10);}.cls-13{fill:url(#linear-gradient-11);}.cls-14{fill:url(#linear-gradient-12);}.cls-15{stroke:#fff;stroke-width:1.22px;}.cls-16{fill:url(#linear-gradient-13);}.cls-17{fill:url(#linear-gradient-14);}.cls-18{fill:url(#linear-gradient-15);}.cls-19{fill:url(#linear-gradient-16);}.cls-20{fill:url(#linear-gradient-17);}.cls-21{fill:url(#linear-gradient-18);}.cls-22{fill:url(#linear-gradient-19);}.cls-23{fill:url(#linear-gradient-20);}.cls-24{fill:url(#linear-gradient-21);}.cls-25{fill:url(#linear-gradient-22);}.cls-27{fill:url(#linear-gradient-23);}.cls-28{fill:url(#linear-gradient-24);}.cls-29{fill:url(#linear-gradient-25);}.cls-30{fill:url(#linear-gradient-26);}.cls-31{fill:url(#linear-gradient-27);}.cls-32{fill:url(#linear-gradient-28);}.cls-33{fill:url(#linear-gradient-29);}.cls-34{fill:url(#linear-gradient-30);}.cls-35{fill:url(#linear-gradient-31);}.cls-36{fill:url(#linear-gradient-32);}.cls-37{fill:url(#linear-gradient-33);}.cls-38{fill:url(#linear-gradient-34);}.cls-39{fill:url(#linear-gradient-35);}.cls-40{fill:url(#linear-gradient-36);}</style><linearGradient id="linear-gradient" x1="439.24" y1="456.92" x2="258.55" y2="139.77" gradientTransform="matrix(-0.97, 0.26, 0.26, 0.97, 776.86, -76.68)" gradientUnits="userSpaceOnUse"><stop offset="0" stop-color="#4696d8"/><stop offset="0.24" stop-color="#509bd9"/><stop offset="0.63" stop-color="#6aa9dc"/><stop offset="1" stop-color="#88b9e0"/></linearGradient><linearGradient id="linear-gradient-2" x1="359.49" y1="75.78" x2="327.03" y2="102.78" gradientTransform="matrix(-0.97, 0.26, 0.26, 0.97, 776.86, -76.68)" gradientUnits="userSpaceOnUse"><stop offset="0" stop-color="#f2f7f8"/><stop offset="0.04" stop-color="#ebf3f6"/><stop offset="0.37" stop-color="#b0d0e9"/><stop offset="0.65" stop-color="#85b6e0"/><stop offset="0.87" stop-color="#6ba6da"/><stop offset="1" stop-color="#61a0d8"/></linearGradient><linearGradient id="linear-gradient-3" x1="372.6" y1="91.55" x2="340.15" y2="118.54" xlink:href="#linear-gradient-2"/><linearGradient id="linear-gradient-4" x1="359.49" y1="93.44" x2="378.5" y2="93.44" gradientTransform="matrix(-0.97, 0.26, 0.26, 0.97, 776.86, -76.68)" gradientUnits="userSpaceOnUse"><stop offset="0" stop-color="#2059b1"/><stop offset="0.18" stop-color="#2662b7"/><stop offset="0.49" stop-color="#387bc7"/><stop offset="0.87" stop-color="#54a3e1"/><stop offset="1" stop-color="#5fb3eb"/></linearGradient><linearGradient id="linear-gradient-5" x1="359.28" y1="85.76" x2="373.14" y2="85.76" xlink:href="#linear-gradient-4"/><linearGradient id="linear-gradient-6" x1="363.07" y1="64.13" x2="346.78" y2="101.22" gradientTransform="matrix(0.94, -0.33, -0.33, -0.94, 166.02, 311.29)" gradientUnits="userSpaceOnUse"><stop offset="0" stop-color="#5fb3eb"/><stop offset="0.13" stop-color="#54a3e1"/><stop offset="0.51" stop-color="#387bc7"/><stop offset="0.82" stop-color="#2662b7"/><stop offset="1" stop-color="#2059b1"/></linearGradient><linearGradient id="linear-gradient-7" x1="376.57" y1="477.79" x2="376.57" y2="438.7" gradientUnits="userSpaceOnUse"><stop offset="0.01" stop-color="#f7a06a"/><stop offset="0.67" stop-color="#fcc082"/><stop offset="1" stop-color="#ffd18f"/></linearGradient><linearGradient id="linear-gradient-8" x1="382.82" y1="131.2" x2="313.7" y2="207.81" gradientUnits="userSpaceOnUse"><stop offset="0" stop-color="#c4dfcc"/><stop offset="0.17" stop-color="#bbdac6"/><stop offset="0.68" stop-color="#a3ccb6"/><stop offset="1" stop-color="#9ac7b0"/></linearGradient><linearGradient id="linear-gradient-9" x1="218.13" y1="65.15" x2="267.15" y2="128.29" xlink:href="#linear-gradient-8"/><linearGradient id="linear-gradient-10" x1="263.77" y1="93.64" x2="208.38" y2="93.64" gradientUnits="userSpaceOnUse"><stop offset="0" stop-color="#9ac7b0"/><stop offset="0.34" stop-color="#acd1bc" stop-opacity="0.58"/><stop offset="0.71" stop-color="#bddbc7" stop-opacity="0.16"/><stop offset="0.88" stop-color="#c4dfcc" stop-opacity="0"/></linearGradient><linearGradient id="linear-gradient-11" x1="190.79" y1="241.86" x2="276.36" y2="288.38" xlink:href="#linear-gradient-8"/><linearGradient id="linear-gradient-12" x1="263.07" y1="264.78" x2="187.4" y2="264.78" xlink:href="#linear-gradient-10"/><linearGradient id="linear-gradient-13" x1="256.5" y1="235.37" x2="321.97" y2="235.37" gradientUnits="userSpaceOnUse"><stop offset="0" stop-color="#9dc9b2"/><stop offset="0.1" stop-color="#a6ceb8"/><stop offset="0.36" stop-color="#b7d8c3"/><stop offset="0.64" stop-color="#c1ddca"/><stop offset="1" stop-color="#c4dfcc"/></linearGradient><linearGradient id="linear-gradient-14" x1="293.74" y1="477.05" x2="293.74" y2="120.4" xlink:href="#linear-gradient-10"/><linearGradient id="linear-gradient-15" x1="103.58" y1="458.03" x2="75.1" y2="421.06" gradientUnits="userSpaceOnUse"><stop offset="0" stop-color="#9bc091"/><stop offset="0.27" stop-color="#a7c999"/><stop offset="0.77" stop-color="#c8e2ae"/><stop offset="0.93" stop-color="#d4ebb6"/></linearGradient><linearGradient id="linear-gradient-16" x1="136.3" y1="438.74" x2="149.3" y2="410.29" xlink:href="#linear-gradient-15"/><linearGradient id="linear-gradient-17" x1="120.82" y1="428.54" x2="121.6" y2="395.25" xlink:href="#linear-gradient-15"/><linearGradient id="linear-gradient-18" x1="108.21" y1="449.87" x2="123.36" y2="404.67" gradientUnits="userSpaceOnUse"><stop offset="0.3" stop-color="#9bc091"/><stop offset="0.93" stop-color="#d4ebb6"/></linearGradient><linearGradient id="linear-gradient-19" x1="14977.02" y1="430.8" x2="14999.98" y2="429.42" gradientTransform="matrix(-1, 0, 0, 1, 15084.84, 0)" gradientUnits="userSpaceOnUse"><stop offset="0.26" stop-color="#9bc091"/><stop offset="0.93" stop-color="#d4ebb6"/></linearGradient><linearGradient id="linear-gradient-20" x1="106.52" y1="472.75" x2="106.52" y2="409.75" xlink:href="#linear-gradient-15"/><linearGradient id="linear-gradient-21" x1="118.43" y1="467.36" x2="152.56" y2="429.76" xlink:href="#linear-gradient-15"/><linearGradient id="linear-gradient-22" x1="123.91" y1="458.2" x2="136.29" y2="412.77" xlink:href="#linear-gradient-15"/><linearGradient id="linear-gradient-23" x1="108.13" y1="470.78" x2="117.19" y2="410.39" gradientUnits="userSpaceOnUse"><stop offset="0" stop-color="#9bc091"/><stop offset="0.1" stop-color="#9fc393" stop-opacity="0.94"/><stop offset="0.29" stop-color="#a8ca9a" stop-opacity="0.76"/><stop offset="0.54" stop-color="#b8d6a4" stop-opacity="0.49"/><stop offset="0.85" stop-color="#cee6b2" stop-opacity="0.11"/><stop offset="0.93" stop-color="#d4ebb6" stop-opacity="0"/></linearGradient><linearGradient id="linear-gradient-24" x1="125.6" y1="472.39" x2="134.55" y2="412.74" xlink:href="#linear-gradient-23"/><linearGradient id="linear-gradient-25" x1="521.55" y1="512.11" x2="521.55" y2="449.73" xlink:href="#linear-gradient-7"/><linearGradient id="linear-gradient-26" x1="431.64" y1="471.77" x2="371.76" y2="394.05" xlink:href="#linear-gradient-15"/><linearGradient id="linear-gradient-27" x1="501.77" y1="431.19" x2="529.04" y2="371.5" xlink:href="#linear-gradient-15"/><linearGradient id="linear-gradient-28" x1="468.8" y1="409.94" x2="470.43" y2="340.49" xlink:href="#linear-gradient-15"/><linearGradient id="linear-gradient-29" x1="442.29" y1="454.51" x2="473.9" y2="360.18" xlink:href="#linear-gradient-18"/><linearGradient id="linear-gradient-30" x1="14643.83" y1="414.68" x2="14692.68" y2="411.75" xlink:href="#linear-gradient-19"/><linearGradient id="linear-gradient-31" x1="438.31" y1="502.14" x2="438.31" y2="370.73" xlink:href="#linear-gradient-15"/><linearGradient id="linear-gradient-32" x1="464.24" y1="491.38" x2="536.15" y2="412.15" xlink:href="#linear-gradient-15"/><linearGradient id="linear-gradient-33" x1="475.54" y1="471.91" x2="501.39" y2="376.99" xlink:href="#linear-gradient-15"/><linearGradient id="linear-gradient-34" x1="442.11" y1="498.16" x2="461.03" y2="372" xlink:href="#linear-gradient-23"/><linearGradient id="linear-gradient-35" x1="479.61" y1="501.28" x2="498.26" y2="376.95" xlink:href="#linear-gradient-23"/><linearGradient id="linear-gradient-36" x1="257.93" y1="506.64" x2="240.89" y2="445.34" xlink:href="#linear-gradient-7"/></defs><g class="cls-1"><g id="图层_2" data-name="图层 2"><g id="Layer_1" data-name="Layer 1"><path class="cls-2" d="M613.63,378.35c.21-7.85-.29-25-6.28-42.51-17.85-52-59.65-87.23-108.93-126.55-45.1-36-32.13-54.09-74.05-99.45-12.86-13.92-56-56.18-114.51-62.22-68.5-7.07-147.61,22.68-177,90.72-26.43,61.22.82,91.16-29,162.76-14.75,35.43-45.55,54.23-51.57,86.64-4.57,24.57,1.05,45.79,9.21,58.1,15,22.7,50.65,27.15,68.22,27.15,127.33,0,247,.35,374.29.53,5,.44,57.43,4.23,88.42-33.36C612.64,415.63,613.43,386,613.63,378.35Z"/><path class="cls-2" d="M59.81,318.05c-7.66-.86-14.94-8.58-15.64-19.06-1.36-20.37,23.23-42.46,32.76-65.5,7.37-17.81,13.8-24.06,18.56-22.3,1.78.66,5.12,1.89,5.73,16.07C103,268.07,78.83,320.18,59.81,318.05Z"/><path class="cls-3" d="M444,470c10.51-4.61,153.17-68.79,161.87-160.27,1.09-11.43,4.5-43.34-15.37-68.49-13.2-16.72-38.31-33.31-52.44-27-3.46,1.56-9.32,5.87-9.11,10.76.18,4,4.43,7.16,8,8.33,7.46,2.42,15.35-2.54,18.14-4.3,15.93-10,23.22-40.12,18.45-61.21-7.33-32.43-46.63-57.84-97.63-61"/><path class="cls-4" d="M457.21,105.59c-5.41-3.57-7.46-10.1-5.28-15.26,2-4.75,7.55-8.24,10.7-6.89,3.71,1.59,4.55,10.1,1.86,21.22C469.2,92.15,472,90,473.63,90.18c2.29.3,4.58,5.51,3.11,10a9.29,9.29,0,0,1-7.68,6.25"/><path class="cls-5" d="M456.74,106.64c-5.87,2.76-8.84,8.93-7.41,14.35,1.3,5,6.3,9.23,9.6,8.35,3.9-1.05,5.95-9.35,4.87-20.75,2.88,13.06,5.32,15.62,7,15.64,2.32,0,5.32-4.79,4.51-9.46a9.28,9.28,0,0,0-6.71-7.28"/><path class="cls-6" d="M453.26,107.05a31,31,0,0,0-11.41,2.19,29.94,29.94,0,0,0-5.56,3"/><path class="cls-7" d="M452.69,104.12a21,21,0,0,1-12.51-4.25A17.38,17.38,0,0,1,438,97.82"/><rect class="cls-8" x="450.85" y="102.7" width="27.27" height="7.34" rx="3.67" transform="translate(920.18 245.69) rotate(-175.9)"/><path class="cls-9" d="M532.6,471.43c-208.94-.05-406.44-17.36-263.34-41.61,0,0,89.37-13.94,139.35,3.4,8.05,2.79,19.15,7.29,40.29,14.34C483.87,459.23,513.06,466.8,532.6,471.43Z"/><path class="cls-10" d="M316.65,257.3l31.45-11.68a52.61,52.61,0,0,0,34.27-47.77l2.7-94.68A22.55,22.55,0,0,0,362.53,80h0A22.55,22.55,0,0,0,340,102.32l-.68,76a34.64,34.64,0,0,1-16.75,29.35l-9.15,5.52Z"/><path class="cls-11" d="M264.92,158.73l-23.09-8.58a38.64,38.64,0,0,1-25.16-35.06l-2-69.52a16.55,16.55,0,0,1,16.55-17h0A16.56,16.56,0,0,1,247.8,45l.5,55.8a25.42,25.42,0,0,0,12.3,21.55l6.72,4Z"/><path class="cls-12" d="M264.92,158.73l-23.09-8.58a38.64,38.64,0,0,1-25.16-35.06l-2-69.52a16.55,16.55,0,0,1,16.55-17h0A16.56,16.56,0,0,1,247.8,45l.5,55.8a25.42,25.42,0,0,0,12.3,21.55l6.72,4Z"/><path class="cls-13" d="M268,318l-9.45-4.19a41,41,0,0,1-24.38-37.47V186a26,26,0,0,0-26-26h0a26,26,0,0,0-26,26.66l2.89,113.44a58.92,58.92,0,0,0,39.32,54.06L268,369.54Z"/><path class="cls-14" d="M268,318l-9.45-4.19a41,41,0,0,1-24.38-37.47V186a26,26,0,0,0-26-26h0a26,26,0,0,0-26,26.66l2.89,113.44a58.92,58.92,0,0,0,39.32,54.06L268,369.54Z"/><path class="cls-15" d="M263.63,344.13l-24.74-11a49.77,49.77,0,0,1-29.53-45l-1.08-128.94-4.57,4A25.28,25.28,0,0,0,195,182.63l1.75,111.14a53.15,53.15,0,0,0,31.17,47.56L264.62,358"/><path class="cls-15" d="M208.28,159.17l6.48,5.82a20.47,20.47,0,0,1,6.79,15.1l.57,100.22a49.24,49.24,0,0,0,28.74,44.49l14.57,6.67"/><path class="cls-15" d="M267.28,142.6l-16.52-8.26a33.56,33.56,0,0,1-18.55-29.6l-1-76.2-1.89,1.27a15.54,15.54,0,0,0-6.87,13L223,108a37.85,37.85,0,0,0,20.65,33.36l22,11.21"/><path class="cls-15" d="M231.24,28.54l2.23,1.91a19.67,19.67,0,0,1,6.83,14.89v54a33.34,33.34,0,0,0,15.7,28.3l9.71,6"/><path class="cls-15" d="M317.93,233.49l22.25-10.91a37.31,37.31,0,0,0,20.89-33L362.53,80l-4.4,2.81a16.05,16.05,0,0,0-7.41,13.33l-1.13,92.22a28,28,0,0,1-14.65,24.29L315.87,223"/><path class="cls-15" d="M362.53,80l3.24,2.7a23.15,23.15,0,0,1,8.34,18.09l-1.21,94.57a41.73,41.73,0,0,1-26.73,38.41l-28.31,10.92"/><path class="cls-16" d="M289.85,1.41h0a28.25,28.25,0,0,0-28.25,28l-3.89,439.91h72.06L318.08,28.91A28.25,28.25,0,0,0,289.85,1.41Z"/><path class="cls-17" d="M289.85,1.41h0a28.25,28.25,0,0,0-28.25,28l-3.89,439.91h72.06L318.08,28.91A28.25,28.25,0,0,0,289.85,1.41Z"/><path class="cls-15" d="M295.54,469.33,289.85,1.41l6.9,6.39a25.51,25.51,0,0,1,8.18,18.29l7.58,443.24"/><path class="cls-15" d="M289.85,1.41l-6.45,6a25.5,25.5,0,0,0-8.12,18.71l.63,444"/><path class="cls-18" d="M75.7,416.58s12,41.45,28,41.45A105.85,105.85,0,0,0,75.7,416.58Z"/><path class="cls-19" d="M152.87,413.58s-1.74,21.28-27.34,44.45h-5.24S132.7,433.66,152.87,413.58Z"/><path class="cls-20" d="M123.33,401.53s11.44,29.41-1.71,56.5H113S121.93,426,123.33,401.53Z"/><path class="cls-21" d="M114.51,390.31a103.11,103.11,0,0,0,2.94,17.78c2.47,9.58,5.1,38.72,1.7,49.94h-8.81S103.69,420.68,114.51,390.31Z"/><path class="cls-22" d="M84.67,401.94s8.51,14.91,16.39,28.45A53.67,53.67,0,0,1,108,458h-4.33S85.29,441.89,84.67,401.94Z"/><path class="cls-23" d="M106.16,402.62s.62,11.63,2.63,18.74,6.5,21.76,3.09,36.67h-6.95S92.87,432.58,106.16,402.62Z"/><path class="cls-24" d="M125.53,458a13.9,13.9,0,0,0,4.4-.66c5.36-1.83,9.58-6,17.44-18.78,2.4-3.91,5.33-9,8.41-15a119.31,119.31,0,0,0-11.71,10C137.65,439.71,130.08,448.33,125.53,458Z"/><path class="cls-25" d="M137.55,392.65s8.92,43.24-12,65.38H117s7.57-23.68,14.35-44.45S137.55,392.65,137.55,392.65Z"/><g class="cls-26"><path class="cls-27" d="M147.1,430.68c5.2-10.2,5.77-17.1,5.77-17.1a170.56,170.56,0,0,0-14.79,17c3.24-18.54-.3-36.73-.52-37.83,0,.35-.33,2.88-6.22,20.87-1.16,3.58-2.36,7.24-3.53,10.86a82.52,82.52,0,0,0-4.48-22.91,213.19,213.19,0,0,1-3.23,25.1,128,128,0,0,0-2.65-18.54,103.11,103.11,0,0,1-2.94-17.78,114.53,114.53,0,0,0-5.86,30.54c-1.9-7.14-2.49-18.23-2.49-18.23A72.06,72.06,0,0,0,100,428.56c-7.56-13-15.32-26.62-15.32-26.62A107.78,107.78,0,0,0,88.86,431,103.55,103.55,0,0,0,75.7,416.58s12,41.45,28,41.45h21.84a13.9,13.9,0,0,0,4.4-.66c5.36-1.83,9.58-6,17.44-18.78,2.4-3.91,5.33-9,8.41-15A112,112,0,0,0,147.1,430.68Z"/><path class="cls-28" d="M137.55,392.65v.06C137.56,392.65,137.55,392.65,137.55,392.65Z"/></g><path class="cls-29" d="M661.5,471.43H381.59S409.12,455.32,446,460s53-18.79,90.62-19.46,55.72,18.12,83.91,20.13S661.5,471.43,661.5,471.43Z"/><path class="cls-30" d="M372.57,385s25.57,86.46,59.71,86.46C432.28,471.43,416.78,424.07,372.57,385Z"/><path class="cls-31" d="M537.21,378.73s-3.72,44.39-58.34,92.7H467.7S494.18,420.61,537.21,378.73Z"/><path class="cls-32" d="M474.18,353.59s24.41,61.35-3.63,117.84H452.07S471.21,404.66,474.18,353.59Z"/><path class="cls-33" d="M455.37,330.19a209.46,209.46,0,0,0,6.27,37.09c5.28,20,10.89,80.76,3.63,104.15h-18.8S432.28,393.53,455.37,330.19Z"/><path class="cls-34" d="M391.71,354.44s18.14,31.1,35,59.35,14.85,57.64,14.85,57.64h-9.24S393,437.76,391.71,354.44Z"/><path class="cls-35" d="M437.56,355.87s1.32,24.25,5.61,39.09,13.85,45.37,6.59,76.47H434.92S409.19,418.36,437.56,355.87Z"/><path class="cls-36" d="M478.87,471.43a29.7,29.7,0,0,0,9.4-1.37c11.43-3.82,20.43-12.44,37.2-39.18,5.12-8.16,11.38-18.73,17.95-31.39a249.48,249.48,0,0,0-25,20.81C504.73,433.23,488.59,451.21,478.87,471.43Z"/><path class="cls-37" d="M504.52,335.07s19,90.19-25.65,136.36H460.66s16.14-49.39,30.62-92.7S504.52,335.07,504.52,335.07Z"/><g class="cls-26"><path class="cls-38" d="M524.89,414.4c11.1-21.29,12.32-35.67,12.32-35.67a357.68,357.68,0,0,0-31.56,35.38c6.91-38.68-.63-76.62-1.1-78.92,0,.74-.71,6-13.27,43.54-2.49,7.46-5,15.1-7.54,22.64-1.59-27.73-9.56-47.78-9.56-47.78-1,16.73-3.69,35.15-6.89,52.35-1.37-16.08-3.53-30.65-5.65-38.66a209.46,209.46,0,0,1-6.27-37.09c-7.56,20.75-11.13,43.07-12.5,63.7-4.05-14.9-5.31-38-5.31-38A146.91,146.91,0,0,0,424.4,410c-16.15-27.16-32.69-55.53-32.69-55.53.38,24.31,4,44.39,8.93,60.65A217.15,217.15,0,0,0,372.57,385s25.57,86.46,59.71,86.46h46.59a29.7,29.7,0,0,0,9.4-1.37c11.43-3.82,20.43-12.44,37.2-39.18,5.12-8.16,11.38-18.73,17.95-31.39C537.43,403.82,531.22,408.8,524.89,414.4Z"/><path class="cls-39" d="M504.52,335.07l0,.12C504.55,335.08,504.52,335.07,504.52,335.07Z"/></g><path class="cls-40" d="M496.28,471.43H0s42.16-15.29,87.57-13.9S160.74,427,219.33,420s122.36,22.86,162.58,33.36C420.54,463.45,496.28,471.43,496.28,471.43Z"/></g></g></g></svg>