<svg xmlns="http://www.w3.org/2000/svg" width="16" height="16" viewBox="0 0 36 36" fill="currentColor"><g fill="#0084FF" fill-rule="evenodd"><path d="M18 0c9.941 0 18 8.059 18 18 0 2.723-.604 5.304-1.687 7.617v6.445a2.25 2.25 0 0 1-2.096 2.245l-.154.005-6.446.001A17.932 17.932 0 0 1 18 36C8.059 36 0 27.941 0 18S8.059 0 18 0z" fill-opacity=".1"></path><path d="M23.32 7.875c.517 0 .948.18 1.293.54.296.294.444.632.444 1.015a.589.589 0 0 1-.037.202l-.258 2.17c0 .18.087.27.259.27h.96c.592 0 1.097.185 1.516.557.419.372.628.828.628 1.369 0 .54-.21 1.003-.628 1.386a2.166 2.166 0 0 1-1.515.574h-1.478c-.197 0-.308.09-.333.27l-.517 3.684c-.025.158.049.237.221.237h1.22c.591 0 1.096.191 1.515.574.419.384.628.845.628 1.386 0 .54-.21 1.003-.628 1.386a2.166 2.166 0 0 1-1.515.574h-1.7c-.172 0-.27.08-.296.237l-.273 2.062c-.05.495-.283.912-.702 1.25a2.282 2.282 0 0 1-1.478.507c-.518 0-.949-.18-1.294-.54-.295-.294-.443-.632-.443-1.015 0-.067.012-.135.037-.202l.236-2.062c.025-.158-.049-.237-.221-.237h-3.732c-.198 0-.296.08-.296.237l-.31 2.062a1.96 1.96 0 0 1-.721 1.25c-.407.338-.88.507-1.423.507-.517 0-.948-.18-1.293-.54-.296-.294-.444-.632-.444-1.015v-.202l.274-2.062c.025-.158-.062-.237-.259-.237h-.739a2.166 2.166 0 0 1-1.515-.574c-.419-.383-.628-.845-.628-1.386 0-.54.21-1.002.628-1.386a2.166 2.166 0 0 1 1.515-.574h1.257c.172 0 .27-.079.295-.237l.48-3.684c.025-.18-.06-.27-.258-.27h-.924a2.166 2.166 0 0 1-1.515-.574c-.419-.383-.628-.84-.628-1.37 0-.529.21-.985.628-1.368a2.166 2.166 0 0 1 1.515-.575h1.515c.197 0 .308-.09.333-.27L13.01 9.6c.074-.474.314-.88.72-1.217.407-.338.881-.507 1.423-.507.518 0 .949.18 1.294.54.27.294.406.62.406.98v.237l-.294 2.17c-.025.18.061.27.259.27h3.769c.172 0 .27-.09.295-.27l.295-2.203c.074-.474.314-.88.72-1.217.407-.338.881-.507 1.423-.507zm-3.316 7.875h-3.49c-.157 0-.256.071-.296.213l-.014.077-.45 3.956c-.02.145.029.228.144.249l.064.005h3.524c.134 0 .22-.059.26-.176l.016-.078.484-3.956c.02-.166-.037-.26-.17-.284l-.072-.006z" fill-rule="nonzero"></path></g></svg>